<?xml  version="1.0" encoding="UTF-8"?>
<!DOCTYPE svg PUBLIC "-//W3C//DTD SVG 1.0//EN" "http://www.w3.org/TR/2001/REC-SVG-20010904/DTD/svg10.dtd" >
<svg xmlns="http://www.w3.org/2000/svg" >
<metadata>
<version>1.0</version>
<id><![CDATA[Walbaum W02 Bold]]></id>
<vendor>Monotype Imaging Inc.</vendor>
<credits>
<name>Fonts.com WebFonts</name>
<URL>http://webfonts.fonts.com</URL>
<role>Home of the Web fonts</role>
</credits>
<license>
<URL>http://webfonts.fonts.com/Legal</URL>
</license>
<copyright><![CDATA[Part of the digitally encoded machine readable outline data for producing the Typefaces provided is copyrighted © 2005 - 2006 Linotype GmbH, www.linotype.com. All rights reserved. This software is the property of Linotype GmbH, and may not be reproduced, modified, disclosed or transferred without the express written approval of Linotype GmbH. Copyright © 1989, 1992 Adobe Systems Incorporated. All Rights Reserved. This typeface is original artwork of Justus Erich Walbaum. The design may be protected in certain jurisdictions.]]></copyright>
<trademark></trademark>
<licensee>
<name></name>
</licensee>
</metadata>
<defs >
<font horiz-adv-x="587" id="b84256ee-5181-49e2-8740-370d26135131">
<font-face font-family="" panose-1="2 0 5 3 8 0 0 2 0 3" ascent="952" descent="-285" units-per-em="1000" alphabetic="0">
</font-face>
<missing-glyph horiz-adv-x="0" />

<glyph unicode="&#xA;" />
<glyph unicode="&#xD;" horiz-adv-x="0" />
<glyph unicode=" " horiz-adv-x="278" />
<glyph unicode="!" horiz-adv-x="296" d="M83 562Q80 583 77 604T73 648Q73 681 93 704T148 727Q183 727 203 704T223 648Q223 626 220 605T213 562L164 208H132L83 562ZM67 69Q67 103 90 126T148 150Q182 150 205 127T229 69Q229 35 206 12T148 -12Q114 -12 91 11T67 69Z"  />
<glyph unicode="&quot;" horiz-adv-x="481" d="M176 438Q174 421 169 409T148 396Q133 396 128 408T120 438L99 625Q97 642 97 650T96 668Q96 677 98 687T105 706T121 721T148 727Q164 727 174 721T190 707T198 688T200 668Q200 658 200 650T197 625L176 438ZM361 438Q359 421 354 409T333 396Q318 396 313 408T305 438L284 625Q282 642 282 650T281 668Q281 677 283 687T290 706T306 721T333 727Q349 727 359 721T375 707T383 688T385 668Q385 658 385 650T382 625L361 438Z"  />
<glyph unicode="#" horiz-adv-x="556" d="M309 201H205L177 0H89L117 201H27V285H129L147 409H57V493H159L187 694H275L247 493H351L379 694H467L439 493H529V409H427L409 285H499V201H397L369 0H281L309 201ZM339 409H235L217 285H321L339 409Z"  />
<glyph unicode="$" horiz-adv-x="556" d="M257 -12Q143 -10 36 34L28 234H62Q64 199 78 164T117 99T177 49T257 24V282Q217 297 178 314T108 355T58 414T38 497Q38 550 57 588T108 652T178 691T257 706V793H299V706Q335 704 375 694T474 663L482 497H448Q442 527 429 554T397 604T354 642T299 665V441Q338 426 379 408T453 363T507 297T528 200Q528 156 511 119T462 54T390 9T299 -12V-99H257V-12ZM299 24Q325 25 349 32T391 53T421 88T432 138Q432 163 422 182T393 217T350 243T299 266V24ZM257 670Q233 670 213 663T176 643T151 610T142 565Q142 545 151 529T175 501T212 478T257 457V670Z"  />
<glyph unicode="%" horiz-adv-x="1000" d="M560 161Q560 199 573 231T609 286T663 321T733 334Q771 334 802 322T857 286T893 231T906 161Q906 123 893 91T857 36T803 1T733 -12Q695 -12 664 0T609 36T573 91T560 161ZM94 533Q94 571 107 603T143 658T197 693T267 706Q305 706 336 694T391 658T427 603T440 533Q440 495 427 463T391 408T337 373T267 360Q229 360 198 372T143 408T107 463T94 533ZM694 722H750L307 -28H251L694 722ZM664 161Q664 145 665 122T673 77T693 40T733 24Q758 24 772 39T793 76T801 121T802 161Q802 177 801 200T793 245T772 282T733 298Q707 298 694 283T673 245T665 200T664 161ZM198 533Q198 517 199 494T207 449T227 412T267 396Q292 396 306 411T327 448T335 493T336 533Q336 549 335 572T327 617T306 654T267 670Q241 670 228 655T207 617T199 572T198 533Z"  />
<glyph unicode="&amp;" horiz-adv-x="815" d="M205 566Q205 609 222 641T269 694T335 725T412 736Q436 736 461 731T508 715T542 684T556 636Q556 607 540 583T500 538T449 500T401 470L545 200Q560 218 571 240T591 285T604 329T609 366Q609 401 594 417T541 433H507V463H785V433H752Q708 433 686 409T648 346T615 261T564 169Q590 122 616 97T672 72Q713 72 728 97T743 159Q743 179 740 198T730 235L756 244Q764 223 768 202T773 158Q773 119 760 88T724 34T667 0T594 -12Q546 -12 514 4T454 59Q410 27 358 8T243 -12Q207 -12 169 0T101 35T50 93T30 174Q30 221 51 258T106 324T177 378T250 423Q238 448 230 467T216 503T208 534T205 566ZM168 249Q168 224 180 189T214 121T265 65T327 42Q362 42 390 54T437 84Q388 157 347 235T264 393Q245 383 228 370T197 340T176 300T168 249ZM337 636Q337 604 351 572T385 499Q402 508 418 522T448 553T470 590T478 631Q478 667 460 686T407 706Q375 706 356 687T337 636Z"  />
<glyph unicode="&apos;" horiz-adv-x="222" d="M139 438Q137 421 132 409T111 396Q96 396 91 408T83 438L62 625Q60 642 60 650T59 668Q59 677 61 687T68 706T84 721T111 727Q127 727 137 721T153 707T161 688T163 668Q163 658 163 650T160 625L139 438Z"  />
<glyph unicode="(" horiz-adv-x="444" d="M429 700Q372 657 335 603T275 488T243 362T234 233Q234 169 243 104T274 -22T334 -137T429 -234L411 -261Q334 -213 275 -160T174 -47T112 82T90 233Q90 314 111 383T174 513T274 626T411 727L429 700Z"  />
<glyph unicode=")" horiz-adv-x="444" d="M15 -234Q72 -191 109 -137T169 -22T201 104T210 233Q210 297 201 362T170 488T110 603T15 700L33 727Q109 679 169 626T270 513T332 384T354 233Q354 152 333 83T270 -47T169 -160T33 -261L15 -234Z"  />
<glyph unicode="*" horiz-adv-x="408" d="M203 530Q194 501 192 477T185 434T170 406T136 396Q127 396 117 400T97 411T82 429T75 453Q75 474 86 485T113 504T149 520T185 544Q141 543 121 538T86 533Q63 533 49 543T35 579Q35 605 48 626T90 647Q105 647 117 637T142 613T165 587T190 570Q189 583 182 598T166 627T151 655T144 679Q144 707 163 717T204 727Q225 727 244 717T264 679Q264 669 257 656T242 628T227 598T218 570Q231 574 242 586T266 612T290 636T318 647Q346 647 359 626T373 579Q373 553 359 543T322 533Q308 533 288 538T223 544Q240 529 259 521T294 504T322 485T333 453Q333 440 327 430T311 412T292 400T272 396Q248 396 238 406T224 434T217 476T204 530H203Z"  />
<glyph unicode="+" horiz-adv-x="556" d="M229 185H45V281H229V466H325V281H510V185H325V0H229V185Z"  />
<glyph unicode="&#x2c;" horiz-adv-x="278" d="M73 -153Q95 -143 114 -127T148 -91T170 -46T176 4Q151 -6 125 -6Q95 -6 72 14T48 69Q48 105 72 127T132 150Q159 150 178 140T208 112T225 73T230 28Q230 -45 190 -98T86 -181L73 -153Z"  />
<glyph unicode="-" horiz-adv-x="407" d="M34 284H373V188H34V284Z"  />
<glyph unicode="." horiz-adv-x="278" d="M58 69Q58 103 81 126T139 150Q173 150 196 127T220 69Q220 35 197 12T139 -12Q105 -12 82 11T58 69Z"  />
<glyph unicode="/" horiz-adv-x="389" d="M278 727H384L111 -12H5L278 727Z"  />
<glyph unicode="0" horiz-adv-x="556" d="M40 347Q40 405 52 468T92 584T165 671T278 706Q345 706 390 672T464 584T504 468T516 347Q516 289 504 226T464 110T391 23T278 -12Q211 -12 166 22T92 110T52 226T40 347ZM196 347Q196 254 198 191T208 90T233 35T278 18Q306 18 322 34T347 89T358 191T360 347Q360 440 358 503T348 604T323 659T278 676Q249 676 233 660T209 605T198 503T196 347Z"  />
<glyph unicode="1" horiz-adv-x="556" d="M123 30H222V557Q202 537 179 520T133 486L117 512Q145 532 176 558T235 612T287 663T325 706H372V30H465V0H123V30Z"  />
<glyph unicode="2" horiz-adv-x="556" d="M30 21Q75 67 126 118T220 226T293 346T322 479Q322 510 318 540T301 594T266 631T206 646Q176 646 154 632T116 595T94 547T86 498Q86 441 111 404T177 342L164 315Q115 344 86 388T56 500Q56 540 71 577T113 643T178 689T264 706Q311 706 349 692T415 650T457 584T472 497Q472 434 442 382T367 286T271 205T178 134V132H333Q364 132 386 135T424 147T451 175T472 225L502 215L427 0H37L30 21Z"  />
<glyph unicode="3" horiz-adv-x="556" d="M144 694H485L493 670L242 444L244 442Q274 451 307 451Q352 451 388 434T449 386T488 317T502 232Q502 176 486 131T439 54T364 5T264 -12Q188 -12 133 28T47 149L76 158Q98 101 136 66T226 30Q271 30 295 47T331 91T344 152T346 221Q346 248 345 281T334 342T306 390T251 409Q229 409 211 401T176 380T144 353T115 325L93 348L336 568H123L79 481L51 494L144 694Z"  />
<glyph unicode="4" horiz-adv-x="556" d="M268 212H27V241L342 706H418V248H486V334H516V120H486V212H418V0H268V212ZM268 528H266L75 248H268V528Z"  />
<glyph unicode="5" horiz-adv-x="556" d="M120 694H325Q345 694 361 695T391 701T416 719T436 755L463 744Q446 699 432 668T404 617T371 586T329 569T270 563T189 562H139L120 386L122 384Q157 429 198 444T288 460Q337 460 375 442T439 394T479 322T493 235Q493 180 476 135T426 57T350 6T251 -12Q165 -12 107 41T30 183L61 191Q71 160 85 132T120 83T166 49T224 36Q264 36 286 53T320 99T334 161T337 229Q337 259 334 290T320 347T287 389T227 406Q204 406 185 396T150 371T124 335T111 293L81 296L120 694Z"  />
<glyph unicode="6" horiz-adv-x="556" d="M516 232Q516 181 500 137T455 59T383 7T289 -12Q218 -12 171 19T97 101T58 214T47 336Q47 401 62 467T111 586T196 672T323 706Q354 706 383 699T435 676T472 638T486 581Q486 519 429 519Q399 519 386 534T372 571Q372 590 378 605T385 635Q385 647 379 655T363 667T344 674T324 676Q278 676 253 646T215 574T200 484T197 404H199Q219 430 249 443T314 456Q363 456 401 439T464 391T503 320T516 232ZM197 216Q197 184 199 149T211 85T236 37T281 18Q309 18 326 37T352 85T363 149T366 216Q366 251 364 286T354 350T329 396T281 414Q251 414 234 397T209 351T199 287T197 216Z"  />
<glyph unicode="7" horiz-adv-x="556" d="M102 694H516Q478 614 446 540T389 384T347 210T323 0H157Q170 79 198 153T262 297T341 434T426 568H102L76 475L47 484L102 694Z"  />
<glyph unicode="8" horiz-adv-x="556" d="M491 548Q491 524 483 503T460 465T428 434T389 411Q427 392 451 369T489 321T508 267T513 210Q513 157 493 116T439 47T364 3T279 -12Q235 -12 193 0T117 36T64 96T43 182Q43 213 53 238T80 284T120 321T169 351Q119 377 93 419T67 519Q67 562 86 596T135 655T205 693T283 706Q319 706 356 697T423 669T472 620T491 548ZM409 151Q409 193 389 221T339 268T273 302T206 332Q177 300 162 260T147 176Q147 146 155 118T179 68T219 32T275 18Q335 18 372 53T409 151ZM395 530Q395 561 389 588T369 634T332 665T276 676Q231 676 201 650T171 575Q171 539 191 516T242 477T305 450T362 426Q378 446 386 475T395 530Z"  />
<glyph unicode="9" horiz-adv-x="556" d="M40 462Q40 513 56 557T101 635T173 687T267 706Q338 706 385 675T459 593T498 480T509 358Q509 293 494 227T445 108T360 22T233 -12Q202 -12 173 -5T121 18T84 56T70 113Q70 175 127 175Q157 175 170 160T184 123Q184 104 178 89T171 59Q171 47 177 39T193 27T212 20T232 18Q278 18 303 48T341 120T356 210T359 290H357Q337 264 307 251T242 238Q193 238 155 255T92 303T53 374T40 462ZM359 478Q359 510 357 545T345 609T320 657T275 676Q246 676 230 657T204 609T193 545T190 478Q190 443 191 408T201 344T227 298T275 280Q305 280 322 297T347 343T357 407T359 478Z"  />
<glyph unicode=":" horiz-adv-x="278" d="M58 415Q58 449 81 472T139 496Q173 496 196 473T220 415Q220 381 197 358T139 334Q105 334 82 357T58 415ZM58 69Q58 103 81 126T139 150Q173 150 196 127T220 69Q220 35 197 12T139 -12Q105 -12 82 11T58 69Z"  />
<glyph unicode=";" horiz-adv-x="278" d="M73 -153Q95 -143 114 -127T148 -91T170 -46T176 4Q151 -6 125 -6Q95 -6 72 14T48 69Q48 105 72 127T132 150Q159 150 178 140T208 112T225 73T230 28Q230 -45 190 -98T86 -181L73 -153ZM58 415Q58 449 81 472T139 496Q173 496 196 473T220 415Q220 381 197 358T139 334Q105 334 82 357T58 415Z"  />
<glyph unicode="&lt;" horiz-adv-x="556" d="M510 379L167 233L510 86V-8L45 193V272L510 473V379Z"  />
<glyph unicode="=" horiz-adv-x="556" d="M45 376H510V281H45V376ZM45 185H510V89H45V185Z"  />
<glyph unicode="&gt;" horiz-adv-x="556" d="M45 86L387 233L45 379V473L510 272V193L45 -8V86Z"  />
<glyph unicode="?" horiz-adv-x="481" d="M201 242Q201 279 209 300T231 336T260 364T288 396T310 447T319 531Q319 557 318 586T308 640T283 681T233 697Q213 697 198 687T182 657Q182 643 187 626T192 591Q192 562 177 547T132 531Q103 531 88 551T72 602Q72 633 88 656T130 696T185 719T242 727Q344 727 400 679T457 526Q457 473 441 440T400 387T347 353T294 328T254 298T237 251V208H201V242ZM142 69Q142 103 165 126T223 150Q257 150 280 127T304 69Q304 35 281 12T223 -12Q189 -12 166 11T142 69Z"  />
<glyph unicode="@" horiz-adv-x="800" d="M543 535H622L561 285Q558 274 556 263T554 243Q554 230 559 218T589 205Q610 205 629 224T664 274T688 341T698 410Q698 454 679 498T623 577T536 633T420 655Q372 655 323 638T234 583T169 486T144 341Q144 278 167 227T230 138T321 81T430 60Q466 60 495 63T549 74T596 90T642 111L654 53Q603 26 549 7T431 -12Q326 -12 251 23T126 110T54 225T30 341Q30 428 61 499T146 620T270 699T420 727Q494 727 558 703T669 637T743 537T770 411Q770 370 757 326T719 244T657 182T573 157Q543 157 525 164T497 183T483 208T476 234H474Q471 227 461 214T435 189T397 167T351 157Q331 157 313 162T280 183T257 223T248 288Q248 328 261 374T299 460T364 525T455 551Q493 551 509 535T531 499H533L543 535ZM338 306Q338 264 354 241T392 217Q410 217 431 233T469 277T498 342T510 423Q510 457 501 474T468 491Q449 491 426 477T384 439T351 380T338 306Z"  />
<glyph unicode="A" horiz-adv-x="741" d="M22 30H99L347 715H383L636 30H719V0H361V30H462L391 236H208L137 30H236V0H22V30ZM300 497H298L218 266H380L300 497Z"  />
<glyph unicode="B" horiz-adv-x="722" d="M30 30H126V685H30V715H408Q455 715 496 709T567 687T614 642T632 568Q632 526 617 495T575 443T513 411T440 397V395Q485 394 528 382T604 346T657 284T677 196Q677 154 663 118T618 56T540 15T429 0H30V30ZM282 30H339Q381 30 413 39T466 69T498 125T509 211Q509 297 476 336T356 375H282V30ZM282 405H346Q413 405 441 437T470 544Q470 581 464 607T443 651T403 677T340 685H282V405Z"  />
<glyph unicode="C" horiz-adv-x="758" d="M701 466H671Q668 512 649 554T599 628T529 678T446 697Q397 697 362 682T303 640T264 580T241 508T231 431T228 358Q228 327 230 290T238 214T258 141T295 78T354 35T439 18Q483 18 524 37T597 87T650 161T676 248H706V46Q678 34 645 24T576 5T504 -7T435 -12Q349 -12 280 15T162 92T87 209T60 358Q60 439 86 506T161 623T279 699T435 727Q501 727 565 712T701 669V466Z"  />
<glyph unicode="D" horiz-adv-x="870" d="M30 30H126V685H30V715H417Q505 715 577 697T702 638T782 528T810 357Q810 256 782 188T702 78T578 18T417 0H30V30ZM282 30H339Q375 30 411 32T479 44T540 74T589 131T622 223T634 357Q634 436 623 491T591 583T545 640T491 671T433 683T377 685H282V30Z"  />
<glyph unicode="E" horiz-adv-x="722" d="M30 30H126V685H30V715H648V489H618Q610 547 588 584T531 644T452 676T354 685H282V380Q360 380 403 415T447 525H477V199H447Q447 243 436 272T404 318T352 343T282 350V30H387Q429 30 472 39T552 73T613 137T646 241H676V0H30V30Z"  />
<glyph unicode="F" horiz-adv-x="667" d="M649 489H619Q611 547 589 584T532 644T453 676T355 685H270V368Q312 368 347 372T407 391T445 436T459 519H489V187H459Q459 239 446 269T407 315T347 334T270 338V30H372V0H18V30H114V685H18V715H649V489Z"  />
<glyph unicode="G" horiz-adv-x="852" d="M517 353H849V323H761V72Q688 39 608 14T436 -12Q352 -12 283 14T164 89T87 207T60 361Q60 446 92 513T178 628T306 701T462 727Q530 727 596 713T726 677V495H696Q690 540 672 577T625 641T558 682T475 697Q400 697 352 669T277 594T239 485T228 358Q228 327 230 290T238 214T258 141T295 78T353 35T438 18Q474 18 504 25T557 46T592 84T605 140V323H517V353Z"  />
<glyph unicode="H" horiz-adv-x="852" d="M30 30H126V685H30V715H378V685H282V380H570V685H474V715H822V685H726V30H822V0H474V30H570V350H282V30H378V0H30V30Z"  />
<glyph unicode="I" horiz-adv-x="408" d="M30 30H126V685H30V715H378V685H282V30H378V0H30V30Z"  />
<glyph unicode="J" horiz-adv-x="519" d="M141 715H489V685H393V172Q393 132 384 99T352 41T287 2T182 -12Q149 -12 116 -7T56 13T13 52T-4 116Q-4 128 -1 141T11 166T34 184T69 191Q103 191 118 172T134 123Q134 103 128 93T114 76T100 63T93 47Q93 33 109 26T145 18Q193 18 215 40T237 116V685H141V715Z"  />
<glyph unicode="K" horiz-adv-x="796" d="M30 30H126V685H30V715H378V685H282V392H337L565 685H461V715H713V685H609L444 478L724 30H796V0H445V30H535L338 362H282V30H378V0H30V30Z"  />
<glyph unicode="L" horiz-adv-x="722" d="M30 30H126V685H30V715H378V685H282V30H399Q441 30 484 39T564 74T625 141T658 250H688V0H30V30Z"  />
<glyph unicode="M" horiz-adv-x="981" d="M18 30H118V685H18V715H291L487 197L702 715H963V685H863V30H963V0H600V30H707V631H705L439 -18H405L150 631H148V30H259V0H18V30Z"  />
<glyph unicode="N" horiz-adv-x="833" d="M25 30H125V685H25V715H312L676 243H678V685H567V715H808V685H708V-12L684 -18L157 649H155V30H265V0H25V30Z"  />
<glyph unicode="O" horiz-adv-x="870" d="M60 358Q60 439 86 506T161 623T279 699T435 727Q521 727 590 700T708 623T783 507T810 358Q810 277 784 209T709 92T591 16T435 -12Q349 -12 280 15T162 92T87 209T60 358ZM236 358Q236 327 238 290T246 214T265 141T300 78T355 35T435 18Q482 18 515 34T570 78T604 140T623 214T632 289T634 358Q634 389 632 426T624 501T605 574T570 637T515 680T435 697Q388 697 355 681T300 637T266 575T247 502T238 427T236 358Z"  />
<glyph unicode="P" horiz-adv-x="722" d="M30 30H126V685H30V715H423Q445 715 473 714T532 708T590 691T641 658T678 602T692 519Q692 454 666 415T597 356T504 329T402 323H282V30H395V0H30V30ZM282 353H369Q412 353 440 362T485 390T509 442T516 519Q516 564 509 596T485 647T440 676T369 685H282V353Z"  />
<glyph unicode="Q" horiz-adv-x="870" d="M688 -220H586Q529 -220 497 -206T445 -171T416 -123T392 -71T357 -24T297 9Q243 25 200 57T125 134T77 236T60 358Q60 439 86 506T161 623T279 699T435 727Q521 727 590 700T708 623T783 507T810 358Q810 277 784 209T709 92T591 16T435 -12Q427 -12 420 -12T407 -11L405 -13Q426 -21 449 -27T494 -41T533 -63T561 -101Q571 -125 578 -141T595 -166T620 -180T659 -184H688V-220ZM236 358Q236 327 238 290T246 214T265 141T300 78T355 35T435 18Q482 18 515 34T570 78T604 140T623 214T632 289T634 358Q634 389 632 426T624 501T605 574T570 637T515 680T435 697Q388 697 355 681T300 637T266 575T247 502T238 427T236 358Z"  />
<glyph unicode="R" horiz-adv-x="758" d="M30 0V30H126V685H30V715H362Q402 715 449 712T536 694T602 647T629 556Q629 513 614 482T574 429T514 394T443 371V369Q495 365 534 355T600 323T640 265T654 171Q654 144 655 119T665 73T692 41T744 28V0H638Q583 0 554 18T511 66T495 131T492 202Q492 251 481 280T450 325T403 345T344 350H282V30H395V0H30ZM282 380H345Q376 380 399 385T437 407T459 454T467 532Q467 580 459 609T434 655T390 678T322 684H282V380Z"  />
<glyph unicode="S" horiz-adv-x="593" d="M46 241H81Q83 203 99 164T142 94T209 44T297 24Q327 24 354 30T403 51T438 87T451 142Q451 186 422 213T349 261T254 299T159 343T86 409T57 512Q57 569 78 609T133 676T208 715T291 727Q313 727 334 725T380 718T431 705T493 683L501 512H467Q460 549 443 581T402 638T345 677T274 691Q225 691 193 661T161 582Q161 543 189 519T261 477T354 440T447 392T518 319T547 206Q547 158 527 118T472 49T390 4T288 -12Q228 -12 170 -1T55 35L46 241Z"  />
<glyph unicode="T" horiz-adv-x="758" d="M205 30H301V685H264Q209 685 171 666T108 617T72 549T60 473H30V715H728V473H698Q697 511 686 549T651 617T588 666T494 685H457V30H553V0H205V30Z"  />
<glyph unicode="U" horiz-adv-x="796" d="M18 715H379V685H270V178Q270 135 284 106T322 58T379 32T449 24Q488 24 524 32T588 61T633 114T650 198V685H545V715H784V685H686V204Q686 140 665 99T607 33T520 -2T413 -12Q342 -12 286 -5T192 24T134 84T114 184V685H18V715Z"  />
<glyph unicode="V" horiz-adv-x="704" d="M84 685H5V715H363V685H260L417 217H419L583 685H484V715H699V685H623L365 -12H333L84 685Z"  />
<glyph unicode="W" horiz-adv-x="1130" d="M81 685H9V715H346V685H250L398 227H400L547 685H451V715H820V685H724L872 227H874L1021 685H925V715H1121V685H1052L826 -12H790L567 661H565L355 -12H318L81 685Z"  />
<glyph unicode="X" horiz-adv-x="741" d="M23 30H107L300 318L83 685H11V715H374V685H270L398 465L545 685H449V715H675V685H585L416 434L652 30H730V0H367V30H469L318 287L145 30H241V0H23V30Z"  />
<glyph unicode="Y" horiz-adv-x="722" d="M176 30H283V358L81 685H3V715H380V685H266L435 406L599 685H495V715H719V685H641L439 358V30H546V0H176V30Z"  />
<glyph unicode="Z" horiz-adv-x="667" d="M69 484V715H661L207 30H343Q388 30 432 40T514 75T576 141T609 244H639V0H6L460 685H362Q321 685 277 676T195 644T131 582T99 484H69Z"  />
<glyph unicode="[" horiz-adv-x="408" d="M130 715H384V679H256V-213H384V-249H130V715Z"  />
<glyph unicode="\" horiz-adv-x="389" d="M5 727H111L384 -12H278L5 727Z"  />
<glyph unicode="]" horiz-adv-x="408" d="M278 -249H24V-213H152V679H24V715H278V-249Z"  />
<glyph unicode="^" horiz-adv-x="556" d="M235 715H320L493 303H387L277 584L167 303H62L235 715Z"  />
<glyph unicode="_" horiz-adv-x="500" d="M0 -75H500V-125H0V-75Z"  />
<glyph unicode="`" horiz-adv-x="278" d="M129 555L-24 647Q-42 658 -47 670T-53 693Q-53 710 -41 723T-5 737Q15 737 30 725T68 687L185 555H129Z"  />
<glyph unicode="a" horiz-adv-x="593" d="M503 114Q503 90 505 74T515 48T537 34T574 30V0Q546 -2 518 -4T462 -6Q417 -6 393 8T362 66H360Q352 42 335 27T295 4T247 -8T198 -12Q122 -12 84 31T45 147Q45 192 61 218T106 260T174 283T259 301Q268 303 281 306T308 314T335 322T359 331V393Q359 410 356 424T343 449T316 466T271 472Q237 472 222 462T200 438T194 406T189 374T174 349T134 339Q111 339 95 350T79 393Q79 426 98 447T147 480T209 497T269 502Q319 502 362 498T436 478T485 432T503 351V114ZM359 301L273 270Q253 263 237 253T211 228T195 189T189 132Q189 113 192 96T205 65T228 44T263 36Q299 36 318 56T347 104T357 162T359 215V301Z"  />
<glyph unicode="b" horiz-adv-x="630" d="M72 685H0V715H62Q139 715 216 721V427H218Q239 465 276 483T361 502Q416 502 458 481T528 425T570 343T585 245Q585 194 568 147T519 65T444 9T348 -12Q308 -12 272 6T218 64H216V0H72V685ZM213 245Q213 209 215 171T229 102T263 50T325 30Q383 30 406 83T429 245Q429 290 427 329T414 397T383 443T325 460Q286 460 264 438T230 383T216 313T213 245Z"  />
<glyph unicode="c" horiz-adv-x="556" d="M515 148Q491 74 441 31T305 -12Q247 -12 199 6T117 57T64 138T45 245Q45 300 64 347T117 429T200 482T305 502Q334 502 368 498T431 479T479 440T498 373Q498 345 482 331T439 317Q395 317 381 339T366 401Q366 435 352 453T305 472Q266 472 245 453T214 403T203 330T201 245Q201 210 204 172T221 103T261 51T334 30Q366 30 390 40T432 68T464 109T488 160L515 148Z"  />
<glyph unicode="d" horiz-adv-x="648" d="M410 58H408Q394 36 377 22T341 1T302 -9T261 -12Q204 -12 163 8T96 64T58 146T45 245Q45 296 59 342T102 424T172 481T269 502Q317 502 354 485T408 430H410V685H338V715H400Q477 715 554 721V30H626V0Q589 0 559 0T504 -2T455 -4T410 -6V58ZM413 245Q413 275 411 312T397 383T363 438T301 460Q264 460 243 443T212 397T200 329T197 245Q197 136 220 83T301 30Q340 30 362 50T396 101T410 171T413 245Z"  />
<glyph unicode="e" horiz-adv-x="574" d="M201 270V227Q201 194 205 159T223 96T262 49T331 30Q394 30 435 63T501 150L528 138Q498 63 441 26T305 -12Q247 -12 199 6T117 57T64 138T45 245Q45 300 64 347T117 429T200 482T305 502Q354 502 396 487T469 442T519 369T537 270H201ZM381 300V346Q381 367 378 389T365 430T340 460T299 472Q264 472 245 454T217 410T205 354T201 300H381Z"  />
<glyph unicode="f" horiz-adv-x="352" d="M15 30H87V460H15V490H87V551Q87 591 98 623T133 679T195 714T287 727Q304 727 331 723T385 707T430 674T449 619Q449 582 433 566T387 549Q349 549 336 567T323 613Q323 628 323 643T318 670T305 689T280 697Q263 697 254 691T239 674T233 650T231 622V490H314V460H231V30H314V0H15V30Z"  />
<glyph unicode="g" horiz-adv-x="610" d="M320 121Q359 120 399 117T471 99T524 56T545 -24Q545 -78 523 -115T463 -176T376 -209T273 -220Q259 -220 237 -219T188 -213T136 -201T87 -178T52 -144T38 -95Q38 -71 48 -54T75 -23T112 -3T154 7V9Q106 14 79 45T51 125Q51 167 76 198T139 243Q122 258 109 283T95 337Q95 380 111 411T155 462T219 492T294 502Q333 502 372 490T440 450Q447 458 454 467T472 484T494 497T524 502Q553 502 576 481T599 426Q599 404 585 393T552 382Q534 382 524 387T510 401T504 419T503 438Q503 454 490 454Q484 454 476 447T459 431Q481 389 481 345Q481 304 464 275T419 227T356 199T285 190Q251 190 221 197T163 225Q136 213 124 203T111 175Q111 160 119 150T139 135T167 128T197 125L320 121ZM461 -86Q461 -55 442 -38T394 -14T336 -5T284 -3Q252 -3 224 -5T174 -16T141 -43T128 -96Q128 -121 140 -139T172 -168T220 -184T276 -190Q296 -190 327 -188T388 -175T439 -144T461 -86ZM288 220Q313 220 326 233T346 266T354 308T355 346Q355 362 354 384T347 425T327 458T288 472Q263 472 250 459T230 426T222 384T221 346Q221 330 222 308T229 267T249 234T288 220Z"  />
<glyph unicode="h" horiz-adv-x="667" d="M23 30H95V685H23V715H85Q162 715 239 721V422H241Q267 462 307 482T400 502Q476 502 524 461T572 337V30H644V0H356V30H428V357Q428 386 422 405T405 435T380 450T350 454Q329 454 309 444T274 416T249 373T239 316V30H311V0H23V30Z"  />
<glyph unicode="i" horiz-adv-x="334" d="M23 30H95V460H23V490H85Q162 490 239 496V30H311V0H23V30ZM89 649Q89 681 112 704T167 727Q199 727 222 704T245 649Q245 617 222 594T167 571Q135 571 112 594T89 649Z"  />
<glyph unicode="j" horiz-adv-x="334" d="M0 -190Q53 -190 74 -160T95 -83V460H23V490H85Q162 490 239 496V23Q239 -24 233 -66T203 -141T131 -195T0 -220V-190ZM89 649Q89 681 112 704T167 727Q199 727 222 704T245 649Q245 617 222 594T167 571Q135 571 112 594T89 649Z"  />
<glyph unicode="k" horiz-adv-x="648" d="M23 30H95V685H23V715H85Q162 715 239 721V266H298L414 460H336V490H540V460H456L383 341L593 30H641V0H358V30H424L285 236H239V30H311V0H23V30Z"  />
<glyph unicode="l" horiz-adv-x="334" d="M23 30H95V685H23V715H85Q162 715 239 721V30H311V0H23V30Z"  />
<glyph unicode="m" horiz-adv-x="1000" d="M23 30H95V460H23V490H85Q162 490 239 496V420H241Q266 465 309 483T400 502Q464 502 506 482T565 407H567Q579 434 598 452T639 481T686 497T733 502Q771 502 802 495T857 468T892 417T905 337V30H977V0H689V30H761V363Q761 393 755 411T738 438T713 451T683 454Q635 454 604 415T572 294V30H644V0H356V30H428V363Q428 393 422 411T405 438T380 451T350 454Q302 454 271 415T239 294V30H311V0H23V30Z"  />
<glyph unicode="n" horiz-adv-x="667" d="M23 30H95V460H23V490H85Q162 490 239 496V422H241Q267 462 307 482T400 502Q476 502 524 461T572 337V30H644V0H356V30H428V357Q428 386 422 405T405 435T380 450T350 454Q329 454 309 444T274 416T249 373T239 316V30H311V0H23V30Z"  />
<glyph unicode="o" horiz-adv-x="610" d="M565 245Q565 189 546 142T493 61T410 8T305 -12Q247 -12 199 6T117 57T64 138T45 245Q45 300 64 347T117 429T200 482T305 502Q362 502 410 483T492 429T546 348T565 245ZM409 245Q409 289 408 330T396 402T365 453T305 472Q266 472 245 453T214 403T203 330T201 245Q201 201 202 160T214 88T245 37T305 18Q344 18 365 37T396 87T407 160T409 245Z"  />
<glyph unicode="p" horiz-adv-x="648" d="M18 -190H90V460H18V490H80Q157 490 234 496V421H236Q257 464 291 483T379 502Q434 502 476 481T546 425T588 343T603 245Q603 194 589 148T546 66T476 9T379 -12Q329 -12 294 3T236 53H234V-190H306V-220H18V-190ZM447 245Q447 289 446 329T435 399T405 448T347 466Q330 466 310 458T273 426T243 359T231 245Q231 174 240 131T264 64T301 32T347 24Q384 24 404 42T434 90T445 161T447 245Z"  />
<glyph unicode="q" horiz-adv-x="648" d="M342 -190H414V53H412Q389 19 354 4T269 -12Q214 -12 172 9T102 65T60 147T45 245Q45 296 59 342T102 424T172 481T269 502Q322 502 356 483T412 421H414V490H558V-190H630V-220H342V-190ZM201 245Q201 201 202 161T213 91T243 42T301 24Q326 24 347 32T383 63T408 130T417 245Q417 315 405 358T376 426T338 458T301 466Q263 466 243 448T214 400T203 329T201 245Z"  />
<glyph unicode="r" horiz-adv-x="463" d="M23 30H95V460H23V490H85Q162 490 239 496V415H241Q256 453 290 477T367 502Q415 502 439 473T463 401Q463 370 448 352T398 334Q369 334 353 348T337 387Q337 398 337 404T338 415T338 424T339 434Q339 454 320 454Q298 454 283 432T258 377T244 307T239 241V30H311V0H23V30Z"  />
<glyph unicode="s" horiz-adv-x="463" d="M43 185H73Q74 151 85 121T116 68T163 32T223 18Q242 18 260 22T292 34T315 56T324 90Q324 119 304 135T253 164T187 189T121 220T71 269T50 348Q50 387 64 415T102 463T158 492T226 502Q282 502 317 492T381 470V341H351Q348 367 337 391T309 433T269 461T219 472Q189 472 168 457T146 410Q146 385 166 370T217 344T283 320T349 289T399 239T420 159Q420 117 403 86T358 32T293 -1T219 -12Q162 -12 117 0T43 23V185Z"  />
<glyph unicode="t" horiz-adv-x="389" d="M95 628H239V490H340V460H239V110Q239 98 240 84T245 58T260 38T290 30Q315 30 331 40T359 62L377 43Q345 9 307 -1T223 -12Q200 -12 177 -9T136 8T107 47T95 119V460H23V490H95V628Z"  />
<glyph unicode="u" horiz-adv-x="667" d="M572 30H644V0Q607 0 577 0T522 -2T473 -4T428 -6V70H426Q400 28 357 8T267 -12Q229 -12 198 -5T143 22T108 73T95 153V460H23V490H85Q162 490 239 496V123Q239 94 245 77T262 51T287 39T317 36Q365 36 396 75T428 196V460H356V490H418Q495 490 572 496V30Z"  />
<glyph unicode="v" horiz-adv-x="574" d="M62 460H2V490H293V460H225L347 167L474 460H406V490H572V460H512L300 -12H274L62 460Z"  />
<glyph unicode="w" horiz-adv-x="889" d="M73 460H1V490H300V460H222L319 179H321L427 460H349V490H657V460H579L674 179H676L778 460H706V490H888V460H816L636 -12H604L444 418L279 -12H249L73 460Z"  />
<glyph unicode="x" horiz-adv-x="610" d="M25 30H97L245 216L93 460H15V490H325V460H259L339 334L439 460H373V490H550V460H484L358 302L530 30H595V0H290V30H362L265 185L142 30H220V0H25V30Z"  />
<glyph unicode="y" horiz-adv-x="574" d="M466 460H394V490H570V460H504L311 -37Q299 -68 285 -100T250 -159T200 -203T129 -220Q107 -220 88 -213T53 -193T30 -161T21 -118Q21 -103 24 -89T36 -63T56 -44T86 -37Q121 -37 134 -56T147 -100Q147 -119 144 -127T140 -148Q140 -161 147 -169T168 -178Q184 -178 200 -165T230 -129T258 -79T280 -22L76 460H4V490H307V460H235L355 162L466 460Z"  />
<glyph unicode="z" horiz-adv-x="500" d="M63 490H474L202 30H259Q306 30 339 42T393 76T425 127T437 190H467V0H26L299 460H229Q166 460 130 422T93 321H63V490Z"  />
<glyph unicode="{" horiz-adv-x="408" d="M127 106Q127 160 112 188T51 233Q97 249 112 277T127 360V559Q127 609 139 639T176 687T238 709T326 715V703Q284 689 269 656T253 565V377Q253 347 250 324T239 284T214 254T172 234V232Q198 224 214 212T238 183T250 142T253 89V-99Q253 -157 268 -190T326 -237V-249Q276 -249 239 -244T177 -221T140 -174T127 -93V106Z"  />
<glyph unicode="|" horiz-adv-x="222" d="M59 786H163V-214H59V786Z"  />
<glyph unicode="}" horiz-adv-x="408" d="M281 360Q281 333 284 313T295 277T319 252T357 233Q334 225 319 215T296 189T284 154T281 106V-93Q281 -143 269 -173T232 -221T170 -243T82 -249V-237Q124 -223 139 -190T155 -99V89Q155 119 158 142T169 182T194 212T236 232V234Q210 241 194 253T170 283T158 324T155 377V565Q155 623 140 656T82 703V715Q131 715 168 710T231 687T268 640T281 559V360Z"  />
<glyph unicode="~" horiz-adv-x="556" d="M47 249Q55 265 66 280T93 308T127 327T172 335Q200 335 229 325T287 301T340 278T385 267Q415 267 435 289T473 337L509 257Q501 241 490 226T463 198T429 179T384 171Q356 171 327 181T269 205T216 228T171 239Q141 239 121 217T83 169L47 249Z"  />
<glyph unicode="&#xA0;" horiz-adv-x="278" />
<glyph unicode="&#xA1;" horiz-adv-x="296" d="M132 299H164L213 -55Q216 -76 219 -97T223 -141Q223 -174 203 -197T148 -220Q113 -220 93 -197T73 -141Q73 -119 76 -98T83 -55L132 299ZM229 438Q229 404 206 381T148 357Q114 357 91 380T67 438Q67 472 90 495T148 519Q182 519 205 496T229 438Z"  />
<glyph unicode="&#xA2;" horiz-adv-x="556" d="M276 -12Q223 -7 181 13T108 66T62 145T45 245Q45 297 61 341T108 419T181 474T276 502V598H312V502Q340 502 373 497T433 478T479 439T498 373Q498 345 482 331T439 317Q395 317 381 339T366 401Q366 433 353 451T312 472V32Q317 30 322 30T334 30Q366 30 390 40T432 68T464 109T488 160L515 148Q492 76 443 32T312 -12V-121H276V-12ZM276 469Q248 461 233 440T210 388T202 321T201 245Q201 217 203 187T213 128T235 77T276 42V469Z"  />
<glyph unicode="&#xA3;" horiz-adv-x="556" d="M44 380H131Q124 414 124 443Q124 493 140 540T186 624T254 683T341 706Q363 706 385 701T427 685T458 656T470 612Q470 588 457 573T418 558Q398 558 388 566T371 587T360 614T349 641T332 661T302 670Q286 670 274 662T254 639T242 608T238 573Q238 551 242 526T253 475T266 425T276 380H421V338H285Q287 326 288 312T290 282Q290 225 263 175T201 80Q233 75 263 74T326 72Q401 72 439 117T481 234H517Q517 189 511 143T485 60T433 0T345 -24Q299 -24 258 -6T177 41Q167 32 157 23T136 6T111 -7T80 -12Q53 -12 37 7T20 52Q20 81 36 97T79 114Q103 114 123 105T172 88Q179 101 182 117T186 149Q186 175 181 199T169 247T154 292T140 338H44V380Z"  />
<glyph unicode="&#xA4;" horiz-adv-x="556" d="M19 148L75 203Q55 231 42 268T29 347Q29 389 42 426T75 491L19 546L80 607L138 552Q166 572 201 583T278 595Q320 595 355 584T418 552L476 607L537 546L481 491Q501 463 514 426T527 347Q527 305 514 268T481 203L537 148L476 87L418 142Q390 122 355 111T278 99Q236 99 201 110T138 142L80 87L19 148ZM127 347Q127 314 139 286T171 236T219 202T278 189Q309 189 336 201T384 235T417 285T429 347Q429 380 417 408T385 458T337 492T278 505Q247 505 220 493T172 459T139 409T127 347Z"  />
<glyph unicode="&#xA5;" horiz-adv-x="556" d="M100 30H204V194H72V236H204V311H72V353H204L37 664H-41V694H288V664H210L343 406L480 664H402V694H597V664H519L348 353H480V311H348V236H480V194H348V30H452V0H100V30Z"  />
<glyph unicode="&#xA6;" horiz-adv-x="222" d="M59 161H163V-89H59V161ZM59 661H163V411H59V661Z"  />
<glyph unicode="&#xA7;" horiz-adv-x="556" d="M295 691Q274 691 255 684T221 662T197 628T188 584Q188 539 211 507T270 445T346 385T422 312T480 213T504 72Q504 4 486 -50T435 -142T354 -200T247 -220Q205 -220 170 -210T108 -180T67 -132T52 -70Q52 -41 69 -20T118 2Q150 2 164 -16T178 -63Q178 -78 173 -93T168 -122Q168 -137 177 -147T199 -165T228 -175T257 -178Q283 -178 306 -170T348 -146T376 -108T387 -58Q387 -18 363 14T301 76T221 140T140 215T79 313T54 446Q54 506 70 557T116 646T192 705T296 727Q329 727 362 719T422 693T465 650T482 589Q482 561 464 544T417 527Q387 527 372 546T356 589Q356 604 360 617T365 643Q365 665 346 678T295 691ZM169 649Q134 617 118 574T102 484Q102 427 126 384T188 303T268 233T349 164T410 86T435 -9Q435 -33 431 -56T420 -101L422 -103Q438 -75 447 -44T456 19Q456 89 433 137T374 223T298 292T222 357T164 434T140 537Q140 566 147 594T171 647L169 649Z"  />
<glyph unicode="&#xA8;" horiz-adv-x="278" d="M-32 628Q-32 655 -13 674T34 694Q61 694 80 675T100 628Q100 601 81 582T34 562Q7 562 -12 581T-32 628ZM178 628Q178 655 197 674T244 694Q271 694 290 675T310 628Q310 601 291 582T244 562Q217 562 198 581T178 628Z"  />
<glyph unicode="&#xA9;" horiz-adv-x="800" d="M31 357Q31 434 60 501T139 619T256 698T400 727Q476 727 543 698T661 619T740 502T769 357Q769 280 740 213T661 96T544 17T400 -12Q323 -12 256 17T139 96T60 213T31 357ZM115 357Q115 295 136 242T194 150T285 89T401 66Q464 66 516 88T606 150T664 242T685 357Q685 419 664 472T605 565T515 626T401 649Q338 649 285 627T195 565T136 473T115 357ZM558 181Q532 167 495 158T420 148Q316 148 255 202T194 361Q194 394 206 430T246 497T315 547T418 567Q459 567 497 559T559 532V454H535Q531 470 524 486T504 514T473 535T431 543Q371 543 343 495T314 367Q314 326 319 290T338 228T374 187T430 172Q473 172 503 199T551 270H577L558 181Z"  />
<glyph unicode="&#xAA;" horiz-adv-x="385" d="M332 479Q332 450 340 439T378 428V404Q342 398 301 398Q267 398 251 407T230 445H228Q225 431 215 422T190 407T160 400T128 398Q74 398 48 423T22 493Q22 528 39 544T85 569Q114 577 150 583T228 604V635Q228 655 218 668T175 682Q154 682 145 677T132 663T128 645T125 627T114 614T86 608Q67 608 56 614T44 641Q44 660 57 673T89 693T131 703T174 706Q209 706 238 704T288 692T320 664T332 616V479ZM228 580L180 561Q154 551 140 537T126 492Q126 469 136 452T170 434Q191 434 203 445T220 473T227 504T228 528V580Z"  />
<glyph unicode="&#xAB;" horiz-adv-x="426" d="M21 254L205 408L228 389L141 236L228 83L205 64L21 218V254ZM198 254L382 408L405 389L318 236L405 83L382 64L198 218V254Z"  />
<glyph unicode="&#xAC;" horiz-adv-x="556" d="M414 281H45V376H510V100H414V281Z"  />
<glyph unicode="&#xAD;" horiz-adv-x="407" d="M34 284H373V188H34V284Z"  />
<glyph unicode="&#xAE;" horiz-adv-x="800" d="M31 357Q31 434 60 501T139 619T256 698T400 727Q476 727 543 698T661 619T740 502T769 357Q769 280 740 213T661 96T544 17T400 -12Q323 -12 256 17T139 96T60 213T31 357ZM115 357Q115 295 136 242T194 150T285 89T401 66Q464 66 516 88T606 150T664 242T685 357Q685 419 664 472T605 565T515 626T401 649Q338 649 285 627T195 565T136 473T115 357ZM230 188Q246 188 255 189T268 194T273 205T274 225V490Q274 514 268 524T230 534V551H434Q482 551 515 527T549 450Q549 417 528 388T469 347L528 261Q544 238 560 218T592 188V164H501Q489 164 476 180T449 222T420 277T388 334H364V225Q364 213 364 206T369 195T382 190T408 188V164H230V188ZM364 358H396Q413 358 424 366T441 386T450 415T453 447Q453 492 439 509T399 527H364V358Z"  />
<glyph unicode="&#xAF;" horiz-adv-x="278" d="M-8 665H286V593H-8V665Z"  />
<glyph unicode="&#xB0;" horiz-adv-x="556" d="M135 563Q135 593 146 619T176 664T222 695T278 706Q308 706 334 695T379 665T410 619T421 563Q421 533 410 507T380 462T334 431T278 420Q248 420 222 431T177 461T146 507T135 563ZM196 563Q196 529 220 505T278 481Q312 481 336 505T360 563Q360 597 336 621T278 645Q244 645 220 621T196 563Z"  />
<glyph unicode="&#xB1;" horiz-adv-x="556" d="M229 466H325V346H510V251H325V130H229V251H45V346H229V466ZM45 96H510V0H45V96Z"  />
<glyph unicode="&#xB2;" horiz-adv-x="361" d="M27 282Q24 282 23 290T22 302Q22 305 25 308T31 315Q59 342 90 371T146 432T188 498T205 569Q205 586 203 603T193 633T172 655T136 664Q116 664 102 655T78 634T63 607T58 581Q58 547 74 524T117 487L105 471Q73 488 54 515T34 582Q34 606 44 628T72 668T116 696T174 706Q243 706 281 672T319 580Q319 542 298 511T248 455T186 410T133 374V372H228Q248 372 262 373T287 381T305 398T319 428L339 422L290 282H27Z"  />
<glyph unicode="&#xB3;" horiz-adv-x="361" d="M89 700H314L326 688L165 550L167 549Q186 555 208 555Q237 555 260 545T299 516T325 474T334 423Q334 354 292 315T171 276Q146 276 127 281T90 297T58 326T27 372L57 383Q63 369 72 356T94 331T122 313T154 306Q177 306 190 316T210 342T218 377T220 417Q220 432 219 450T213 485T196 513T162 525Q149 525 137 520T115 506T97 490T83 475L55 493L201 614V616H88L59 572L28 580L89 700Z"  />
<glyph unicode="&#xB4;" horiz-adv-x="278" d="M93 555L210 687Q233 712 248 724T283 737Q307 737 319 724T331 693Q331 682 326 670T302 647L149 555H93Z"  />
<glyph unicode="&#xB5;" horiz-adv-x="667" d="M572 30H644V0Q607 0 577 0T522 -2T473 -4T428 -6V70H426Q400 28 357 8T267 -12Q247 -12 227 -9T193 6Q194 -1 196 -17T202 -54T207 -93T209 -126Q209 -174 193 -197T139 -220Q101 -220 86 -197T71 -126Q71 -114 74 -80T82 1T91 99T95 200V460H23V490H85Q162 490 239 496V123Q239 94 245 77T262 51T287 39T317 36Q365 36 396 75T428 196V460H356V490H418Q495 490 572 496V30Z"  />
<glyph unicode="&#xB6;" horiz-adv-x="620" d="M485 -125Q485 -142 487 -152T497 -169T521 -178T564 -184V-208H381V685H307V-208H124V-184Q151 -181 166 -178T190 -169T201 -153T203 -125V304Q163 304 132 319T80 363T47 430T36 517Q36 621 85 668T251 715H564V691Q537 688 522 685T498 676T487 660T485 632V-125Z"  />
<glyph unicode="&#xB7;" horiz-adv-x="278" d="M55 281Q55 316 79 340T139 365Q174 365 198 341T223 281Q223 246 199 222T139 197Q104 197 80 221T55 281Z"  />
<glyph unicode="&#xB8;" horiz-adv-x="278" d="M57 -165Q73 -171 88 -174T121 -178Q174 -178 174 -138Q174 -120 160 -111T130 -102Q123 -102 116 -103T100 -106L89 -98L132 0H174L146 -65Q154 -63 163 -62T184 -60Q200 -60 215 -63T243 -75T262 -96T270 -130Q270 -158 257 -175T222 -203T176 -216T128 -220Q110 -220 86 -215T41 -202L57 -165Z"  />
<glyph unicode="&#xB9;" horiz-adv-x="361" d="M80 306H136V610Q123 599 109 589T78 568L68 589Q86 601 106 616T145 647T179 678T203 706H250V306H302V282H80V306Z"  />
<glyph unicode="&#xBA;" horiz-adv-x="398" d="M376 552Q376 519 364 491T328 442T272 410T199 398Q118 398 70 439T22 552Q22 585 34 613T70 662T126 694T199 706Q239 706 272 695T328 663T363 614T376 552ZM262 552Q262 576 261 599T254 641T236 670T199 682Q175 682 163 671T144 641T137 600T136 552Q136 528 137 505T144 463T162 434T199 422Q223 422 235 433T254 463T261 504T262 552Z"  />
<glyph unicode="&#xBB;" horiz-adv-x="426" d="M405 218L221 64L198 83L285 236L198 389L221 408L405 254V218ZM228 218L44 64L21 83L108 236L21 389L44 408L228 254V218Z"  />
<glyph unicode="&#xBC;" horiz-adv-x="834" d="M610 123H460V150L662 424H724V153H764V200H788V72H764V123H724V0H610V123ZM58 306H114V610Q101 599 87 589T56 568L46 589Q64 601 84 616T123 647T157 678T181 706H228V306H280V282H58V306ZM602 722H658L215 -28H159L602 722ZM610 310H608L490 153H610V310Z"  />
<glyph unicode="&#xBD;" horiz-adv-x="834" d="M476 0Q473 0 472 8T471 20Q471 23 474 26T480 33Q508 60 539 89T595 150T637 216T654 287Q654 304 652 321T642 351T621 373T585 382Q565 382 551 373T527 352T512 325T507 299Q507 265 523 242T566 205L554 189Q522 206 503 233T483 300Q483 324 493 346T521 386T565 414T623 424Q692 424 730 390T768 298Q768 260 747 229T697 173T635 128T582 92V90H677Q697 90 711 91T736 99T754 116T768 146L788 140L739 0H476ZM58 306H114V610Q101 599 87 589T56 568L46 589Q64 601 84 616T123 647T157 678T181 706H228V306H280V282H58V306ZM589 722H645L202 -28H146L589 722Z"  />
<glyph unicode="&#xBE;" horiz-adv-x="834" d="M610 123H460V150L662 424H724V153H764V200H788V72H764V123H724V0H610V123ZM70 700H295L307 688L146 550L148 549Q167 555 189 555Q218 555 241 545T280 516T306 474T315 423Q315 354 273 315T152 276Q127 276 108 281T71 297T39 326T8 372L38 383Q44 369 53 356T75 331T103 313T135 306Q158 306 171 316T191 342T199 377T201 417Q201 432 200 450T194 485T177 513T143 525Q130 525 118 520T96 506T78 490T64 475L36 493L182 614V616H69L40 572L9 580L70 700ZM602 722H658L215 -28H159L602 722ZM610 310H608L490 153H610V310Z"  />
<glyph unicode="&#xBF;" horiz-adv-x="481" d="M280 265Q280 228 272 207T250 171T221 143T193 111T171 60T162 -24Q162 -50 163 -79T173 -133T198 -174T248 -190Q268 -190 283 -180T299 -150Q299 -136 294 -119T289 -84Q289 -55 304 -40T349 -24Q378 -24 393 -44T409 -95Q409 -127 393 -150T351 -189T296 -212T239 -220Q137 -220 81 -172T24 -19Q24 34 40 67T81 120T134 154T187 179T227 209T244 256V299H280V265ZM339 438Q339 404 316 381T258 357Q224 357 201 380T177 438Q177 472 200 495T258 519Q292 519 315 496T339 438Z"  />
<glyph unicode="&#xC0;" horiz-adv-x="741" d="M22 30H99L347 715H383L636 30H719V0H361V30H462L391 236H208L137 30H236V0H22V30ZM300 497H298L218 266H380L300 497ZM390 762L237 854Q219 865 214 877T208 900Q208 917 220 930T256 944Q276 944 291 932T329 894L446 762H390Z"  />
<glyph unicode="&#xC1;" horiz-adv-x="741" d="M22 30H99L347 715H383L636 30H719V0H361V30H462L391 236H208L137 30H236V0H22V30ZM300 497H298L218 266H380L300 497ZM288 762L405 894Q428 919 443 931T478 944Q502 944 514 931T526 900Q526 889 521 877T497 854L344 762H288Z"  />
<glyph unicode="&#xC2;" horiz-adv-x="741" d="M22 30H99L347 715H383L636 30H719V0H361V30H462L391 236H208L137 30H236V0H22V30ZM300 497H298L218 266H380L300 497ZM324 938H416L538 762H482L370 860L258 762H202L324 938Z"  />
<glyph unicode="&#xC3;" horiz-adv-x="741" d="M22 30H99L347 715H383L636 30H719V0H361V30H462L391 236H208L137 30H236V0H22V30ZM300 497H298L218 266H380L300 497ZM187 788Q193 811 201 833T222 873T255 902T302 913Q323 913 345 906T389 889T430 873T464 865Q484 865 495 880T510 912H553Q547 889 539 867T517 827T484 798T437 787Q416 787 394 794T350 811T309 827T275 835Q255 835 244 820T230 788H187Z"  />
<glyph unicode="&#xC4;" horiz-adv-x="741" d="M22 30H99L347 715H383L636 30H719V0H361V30H462L391 236H208L137 30H236V0H22V30ZM300 497H298L218 266H380L300 497ZM200 835Q200 862 219 881T266 901Q293 901 312 882T332 835Q332 808 313 789T266 769Q239 769 220 788T200 835ZM410 835Q410 862 429 881T476 901Q503 901 522 882T542 835Q542 808 523 789T476 769Q449 769 430 788T410 835Z"  />
<glyph unicode="&#xC5;" horiz-adv-x="741" d="M22 30H99L347 715H383L636 30H719V0H361V30H462L391 236H208L137 30H236V0H22V30ZM300 497H298L218 266H380L300 497ZM262 841Q262 886 292 916T368 947Q413 947 443 917T474 841Q474 796 444 766T368 735Q323 735 293 765T262 841ZM426 841Q426 865 409 882T368 899Q344 899 327 882T310 841Q310 817 327 800T368 783Q392 783 409 800T426 841Z"  />
<glyph unicode="&#xC6;" horiz-adv-x="1056" d="M4 30H88L412 685H328V715H968V489H938Q930 547 908 584T851 644T772 676T674 685H602V380Q680 380 723 415T767 525H797V199H767Q767 243 756 272T724 318T672 343T602 350V30H707Q749 30 792 39T872 73T933 137T966 241H996V0H350V30H446V262H242L130 30H226V0H4V30ZM446 679H444L256 292H446V679Z"  />
<glyph unicode="&#xC7;" horiz-adv-x="758" d="M351 -165Q367 -171 382 -174T415 -178Q468 -178 468 -138Q468 -120 454 -111T424 -102Q417 -102 410 -103T394 -106L383 -98L421 -11Q338 -9 272 19T158 96T86 212T60 358Q60 439 86 506T161 623T279 699T435 727Q501 727 565 712T701 669V466H671Q668 512 649 554T599 628T529 678T446 697Q397 697 362 682T303 640T264 580T241 508T231 431T228 358Q228 327 230 290T238 214T258 141T295 78T354 35T439 18Q483 18 524 37T597 87T650 161T676 248H706V46Q655 25 591 9T464 -10L440 -65Q448 -63 457 -62T478 -60Q494 -60 509 -63T537 -75T556 -96T564 -130Q564 -158 551 -175T516 -203T470 -216T422 -220Q404 -220 380 -215T335 -202L351 -165Z"  />
<glyph unicode="&#xC8;" horiz-adv-x="722" d="M30 30H126V685H30V715H648V489H618Q610 547 588 584T531 644T452 676T354 685H282V380Q360 380 403 415T447 525H477V199H447Q447 243 436 272T404 318T352 343T282 350V30H387Q429 30 472 39T552 73T613 137T646 241H676V0H30V30ZM396 762L243 854Q225 865 220 877T214 900Q214 917 226 930T262 944Q282 944 297 932T335 894L452 762H396Z"  />
<glyph unicode="&#xC9;" horiz-adv-x="722" d="M30 30H126V685H30V715H648V489H618Q610 547 588 584T531 644T452 676T354 685H282V380Q360 380 403 415T447 525H477V199H447Q447 243 436 272T404 318T352 343T282 350V30H387Q429 30 472 39T552 73T613 137T646 241H676V0H30V30ZM284 762L401 894Q424 919 439 931T474 944Q498 944 510 931T522 900Q522 889 517 877T493 854L340 762H284Z"  />
<glyph unicode="&#xCA;" horiz-adv-x="722" d="M30 30H126V685H30V715H648V489H618Q610 547 588 584T531 644T452 676T354 685H282V380Q360 380 403 415T447 525H477V199H447Q447 243 436 272T404 318T352 343T282 350V30H387Q429 30 472 39T552 73T613 137T646 241H676V0H30V30ZM315 938H407L529 762H473L361 860L249 762H193L315 938Z"  />
<glyph unicode="&#xCB;" horiz-adv-x="722" d="M30 30H126V685H30V715H648V489H618Q610 547 588 584T531 644T452 676T354 685H282V380Q360 380 403 415T447 525H477V199H447Q447 243 436 272T404 318T352 343T282 350V30H387Q429 30 472 39T552 73T613 137T646 241H676V0H30V30ZM189 835Q189 862 208 881T255 901Q282 901 301 882T321 835Q321 808 302 789T255 769Q228 769 209 788T189 835ZM399 835Q399 862 418 881T465 901Q492 901 511 882T531 835Q531 808 512 789T465 769Q438 769 419 788T399 835Z"  />
<glyph unicode="&#xCC;" horiz-adv-x="408" d="M30 30H126V685H30V715H378V685H282V30H378V0H30V30ZM231 762L78 854Q60 865 55 877T49 900Q49 917 61 930T97 944Q117 944 132 932T170 894L287 762H231Z"  />
<glyph unicode="&#xCD;" horiz-adv-x="408" d="M30 30H126V685H30V715H378V685H282V30H378V0H30V30ZM130 762L247 894Q270 919 285 931T320 944Q344 944 356 931T368 900Q368 889 363 877T339 854L186 762H130Z"  />
<glyph unicode="&#xCE;" horiz-adv-x="408" d="M30 30H126V685H30V715H378V685H282V30H378V0H30V30ZM158 938H250L372 762H316L204 860L92 762H36L158 938Z"  />
<glyph unicode="&#xCF;" horiz-adv-x="408" d="M30 30H126V685H30V715H378V685H282V30H378V0H30V30ZM34 835Q34 862 53 881T100 901Q127 901 146 882T166 835Q166 808 147 789T100 769Q73 769 54 788T34 835ZM244 835Q244 862 263 881T310 901Q337 901 356 882T376 835Q376 808 357 789T310 769Q283 769 264 788T244 835Z"  />
<glyph unicode="&#xD0;" horiz-adv-x="870" d="M30 30H126V348H30V390H126V685H30V715H417Q505 715 577 697T702 638T782 528T810 357Q810 256 782 188T702 78T578 18T417 0H30V30ZM282 30H339Q375 30 411 32T479 44T540 74T589 131T622 223T634 357Q634 436 623 491T591 583T545 640T491 671T433 683T377 685H282V390H442V348H282V30Z"  />
<glyph unicode="&#xD1;" horiz-adv-x="833" d="M25 30H125V685H25V715H312L676 243H678V685H567V715H808V685H708V-12L684 -18L157 649H155V30H265V0H25V30ZM233 788Q239 811 247 833T268 873T301 902T348 913Q369 913 391 906T435 889T476 873T510 865Q530 865 541 880T556 912H599Q593 889 585 867T563 827T530 798T483 787Q462 787 440 794T396 811T355 827T321 835Q301 835 290 820T276 788H233Z"  />
<glyph unicode="&#xD2;" horiz-adv-x="870" d="M60 358Q60 439 86 506T161 623T279 699T435 727Q521 727 590 700T708 623T783 507T810 358Q810 277 784 209T709 92T591 16T435 -12Q349 -12 280 15T162 92T87 209T60 358ZM236 358Q236 327 238 290T246 214T265 141T300 78T355 35T435 18Q482 18 515 34T570 78T604 140T623 214T632 289T634 358Q634 389 632 426T624 501T605 574T570 637T515 680T435 697Q388 697 355 681T300 637T266 575T247 502T238 427T236 358ZM475 762L322 854Q304 865 299 877T293 900Q293 917 305 930T341 944Q361 944 376 932T414 894L531 762H475Z"  />
<glyph unicode="&#xD3;" horiz-adv-x="870" d="M60 358Q60 439 86 506T161 623T279 699T435 727Q521 727 590 700T708 623T783 507T810 358Q810 277 784 209T709 92T591 16T435 -12Q349 -12 280 15T162 92T87 209T60 358ZM236 358Q236 327 238 290T246 214T265 141T300 78T355 35T435 18Q482 18 515 34T570 78T604 140T623 214T632 289T634 358Q634 389 632 426T624 501T605 574T570 637T515 680T435 697Q388 697 355 681T300 637T266 575T247 502T238 427T236 358ZM395 762L512 894Q535 919 550 931T585 944Q609 944 621 931T633 900Q633 889 628 877T604 854L451 762H395Z"  />
<glyph unicode="&#xD4;" horiz-adv-x="870" d="M60 358Q60 439 86 506T161 623T279 699T435 727Q521 727 590 700T708 623T783 507T810 358Q810 277 784 209T709 92T591 16T435 -12Q349 -12 280 15T162 92T87 209T60 358ZM236 358Q236 327 238 290T246 214T265 141T300 78T355 35T435 18Q482 18 515 34T570 78T604 140T623 214T632 289T634 358Q634 389 632 426T624 501T605 574T570 637T515 680T435 697Q388 697 355 681T300 637T266 575T247 502T238 427T236 358ZM389 938H481L603 762H547L435 860L323 762H267L389 938Z"  />
<glyph unicode="&#xD5;" horiz-adv-x="870" d="M60 358Q60 439 86 506T161 623T279 699T435 727Q521 727 590 700T708 623T783 507T810 358Q810 277 784 209T709 92T591 16T435 -12Q349 -12 280 15T162 92T87 209T60 358ZM236 358Q236 327 238 290T246 214T265 141T300 78T355 35T435 18Q482 18 515 34T570 78T604 140T623 214T632 289T634 358Q634 389 632 426T624 501T605 574T570 637T515 680T435 697Q388 697 355 681T300 637T266 575T247 502T238 427T236 358ZM251 788Q257 811 265 833T286 873T319 902T366 913Q387 913 409 906T453 889T494 873T528 865Q548 865 559 880T574 912H617Q611 889 603 867T581 827T548 798T501 787Q480 787 458 794T414 811T373 827T339 835Q319 835 308 820T294 788H251Z"  />
<glyph unicode="&#xD6;" horiz-adv-x="870" d="M60 358Q60 439 86 506T161 623T279 699T435 727Q521 727 590 700T708 623T783 507T810 358Q810 277 784 209T709 92T591 16T435 -12Q349 -12 280 15T162 92T87 209T60 358ZM236 358Q236 327 238 290T246 214T265 141T300 78T355 35T435 18Q482 18 515 34T570 78T604 140T623 214T632 289T634 358Q634 389 632 426T624 501T605 574T570 637T515 680T435 697Q388 697 355 681T300 637T266 575T247 502T238 427T236 358ZM265 835Q265 862 284 881T331 901Q358 901 377 882T397 835Q397 808 378 789T331 769Q304 769 285 788T265 835ZM475 835Q475 862 494 881T541 901Q568 901 587 882T607 835Q607 808 588 789T541 769Q514 769 495 788T475 835Z"  />
<glyph unicode="&#xD7;" horiz-adv-x="556" d="M62 382L129 449L278 300L428 449L493 382L343 233L493 84L428 18L278 168L129 18L62 84L212 233L62 382Z"  />
<glyph unicode="&#xD8;" horiz-adv-x="870" d="M151 104Q106 154 83 218T60 358Q60 439 86 506T161 623T279 699T435 727Q514 727 578 704T691 639L780 727L807 698L719 611Q764 563 787 499T810 358Q810 277 784 209T709 92T591 16T435 -12Q355 -12 291 11T179 76L90 -12L63 17L151 104ZM609 558Q600 587 586 612T551 656T502 686T435 697Q388 697 355 681T300 637T266 575T247 502T238 427T236 358Q236 323 238 283T249 201L609 558ZM261 157Q270 128 284 103T319 59T368 29T435 18Q482 18 515 34T570 78T604 140T623 214T632 289T634 358Q634 392 632 432T621 514L261 157Z"  />
<glyph unicode="&#xD9;" horiz-adv-x="796" d="M18 715H379V685H270V178Q270 135 284 106T322 58T379 32T449 24Q488 24 524 32T588 61T633 114T650 198V685H545V715H784V685H686V204Q686 140 665 99T607 33T520 -2T413 -12Q342 -12 286 -5T192 24T134 84T114 184V685H18V715ZM450 762L297 854Q279 865 274 877T268 900Q268 917 280 930T316 944Q336 944 351 932T389 894L506 762H450Z"  />
<glyph unicode="&#xDA;" horiz-adv-x="796" d="M18 715H379V685H270V178Q270 135 284 106T322 58T379 32T449 24Q488 24 524 32T588 61T633 114T650 198V685H545V715H784V685H686V204Q686 140 665 99T607 33T520 -2T413 -12Q342 -12 286 -5T192 24T134 84T114 184V685H18V715ZM343 762L460 894Q483 919 498 931T533 944Q557 944 569 931T581 900Q581 889 576 877T552 854L399 762H343Z"  />
<glyph unicode="&#xDB;" horiz-adv-x="796" d="M18 715H379V685H270V178Q270 135 284 106T322 58T379 32T449 24Q488 24 524 32T588 61T633 114T650 198V685H545V715H784V685H686V204Q686 140 665 99T607 33T520 -2T413 -12Q342 -12 286 -5T192 24T134 84T114 184V685H18V715ZM380 938H472L594 762H538L426 860L314 762H258L380 938Z"  />
<glyph unicode="&#xDC;" horiz-adv-x="796" d="M18 715H379V685H270V178Q270 135 284 106T322 58T379 32T449 24Q488 24 524 32T588 61T633 114T650 198V685H545V715H784V685H686V204Q686 140 665 99T607 33T520 -2T413 -12Q342 -12 286 -5T192 24T134 84T114 184V685H18V715ZM246 835Q246 862 265 881T312 901Q339 901 358 882T378 835Q378 808 359 789T312 769Q285 769 266 788T246 835ZM456 835Q456 862 475 881T522 901Q549 901 568 882T588 835Q588 808 569 789T522 769Q495 769 476 788T456 835Z"  />
<glyph unicode="&#xDD;" horiz-adv-x="722" d="M176 30H283V358L81 685H3V715H380V685H266L435 406L599 685H495V715H719V685H641L439 358V30H546V0H176V30ZM323 762L440 894Q463 919 478 931T513 944Q537 944 549 931T561 900Q561 889 556 877T532 854L379 762H323Z"  />
<glyph unicode="&#xDE;" horiz-adv-x="722" d="M30 30H126V685H30V715H378V685H282V600H423Q445 600 473 599T532 593T590 576T641 543T678 487T692 404Q692 339 666 300T597 241T504 214T402 208H282V30H378V0H30V30ZM282 238H369Q412 238 440 247T485 275T509 327T516 404Q516 449 509 481T485 532T440 561T369 570H282V238Z"  />
<glyph unicode="&#xDF;" horiz-adv-x="630" d="M23 30H95V515Q95 615 158 671T343 727Q380 727 418 722T487 700T539 656T559 582Q559 545 542 519T499 476T440 450T376 440V438Q432 433 472 419T537 380T574 314T586 216Q586 175 578 134T550 61T497 8T416 -12Q381 -12 358 -2T321 28T302 74T296 132H326Q326 120 327 104T334 72T349 47T379 36Q417 36 426 67T436 159V213Q436 262 434 301T420 366T383 406T310 420V450Q366 450 387 476T409 560Q409 586 406 611T394 655T368 685T320 697Q297 697 282 688T257 663T243 629T239 591V30H287V0H23V30Z"  />
<glyph unicode="&#xE0;" horiz-adv-x="593" d="M503 114Q503 90 505 74T515 48T537 34T574 30V0Q546 -2 518 -4T462 -6Q417 -6 393 8T362 66H360Q352 42 335 27T295 4T247 -8T198 -12Q122 -12 84 31T45 147Q45 192 61 218T106 260T174 283T259 301Q268 303 281 306T308 314T335 322T359 331V393Q359 410 356 424T343 449T316 466T271 472Q237 472 222 462T200 438T194 406T189 374T174 349T134 339Q111 339 95 350T79 393Q79 426 98 447T147 480T209 497T269 502Q319 502 362 498T436 478T485 432T503 351V114ZM359 301L273 270Q253 263 237 253T211 228T195 189T189 132Q189 113 192 96T205 65T228 44T263 36Q299 36 318 56T347 104T357 162T359 215V301ZM323 555L170 647Q152 658 147 670T141 693Q141 710 153 723T189 737Q209 737 224 725T262 687L379 555H323Z"  />
<glyph unicode="&#xE1;" horiz-adv-x="593" d="M503 114Q503 90 505 74T515 48T537 34T574 30V0Q546 -2 518 -4T462 -6Q417 -6 393 8T362 66H360Q352 42 335 27T295 4T247 -8T198 -12Q122 -12 84 31T45 147Q45 192 61 218T106 260T174 283T259 301Q268 303 281 306T308 314T335 322T359 331V393Q359 410 356 424T343 449T316 466T271 472Q237 472 222 462T200 438T194 406T189 374T174 349T134 339Q111 339 95 350T79 393Q79 426 98 447T147 480T209 497T269 502Q319 502 362 498T436 478T485 432T503 351V114ZM359 301L273 270Q253 263 237 253T211 228T195 189T189 132Q189 113 192 96T205 65T228 44T263 36Q299 36 318 56T347 104T357 162T359 215V301ZM224 555L341 687Q364 712 379 724T414 737Q438 737 450 724T462 693Q462 682 457 670T433 647L280 555H224Z"  />
<glyph unicode="&#xE2;" horiz-adv-x="593" d="M503 114Q503 90 505 74T515 48T537 34T574 30V0Q546 -2 518 -4T462 -6Q417 -6 393 8T362 66H360Q352 42 335 27T295 4T247 -8T198 -12Q122 -12 84 31T45 147Q45 192 61 218T106 260T174 283T259 301Q268 303 281 306T308 314T335 322T359 331V393Q359 410 356 424T343 449T316 466T271 472Q237 472 222 462T200 438T194 406T189 374T174 349T134 339Q111 339 95 350T79 393Q79 426 98 447T147 480T209 497T269 502Q319 502 362 498T436 478T485 432T503 351V114ZM359 301L273 270Q253 263 237 253T211 228T195 189T189 132Q189 113 192 96T205 65T228 44T263 36Q299 36 318 56T347 104T357 162T359 215V301ZM251 731H343L465 555H409L297 653L185 555H129L251 731Z"  />
<glyph unicode="&#xE3;" horiz-adv-x="593" d="M503 114Q503 90 505 74T515 48T537 34T574 30V0Q546 -2 518 -4T462 -6Q417 -6 393 8T362 66H360Q352 42 335 27T295 4T247 -8T198 -12Q122 -12 84 31T45 147Q45 192 61 218T106 260T174 283T259 301Q268 303 281 306T308 314T335 322T359 331V393Q359 410 356 424T343 449T316 466T271 472Q237 472 222 462T200 438T194 406T189 374T174 349T134 339Q111 339 95 350T79 393Q79 426 98 447T147 480T209 497T269 502Q319 502 362 498T436 478T485 432T503 351V114ZM359 301L273 270Q253 263 237 253T211 228T195 189T189 132Q189 113 192 96T205 65T228 44T263 36Q299 36 318 56T347 104T357 162T359 215V301ZM114 581Q120 604 128 626T149 666T182 695T229 706Q250 706 272 699T316 682T357 666T391 658Q411 658 422 673T437 705H480Q474 682 466 660T444 620T411 591T364 580Q343 580 321 587T277 604T236 620T202 628Q182 628 171 613T157 581H114Z"  />
<glyph unicode="&#xE4;" horiz-adv-x="593" d="M503 114Q503 90 505 74T515 48T537 34T574 30V0Q546 -2 518 -4T462 -6Q417 -6 393 8T362 66H360Q352 42 335 27T295 4T247 -8T198 -12Q122 -12 84 31T45 147Q45 192 61 218T106 260T174 283T259 301Q268 303 281 306T308 314T335 322T359 331V393Q359 410 356 424T343 449T316 466T271 472Q237 472 222 462T200 438T194 406T189 374T174 349T134 339Q111 339 95 350T79 393Q79 426 98 447T147 480T209 497T269 502Q319 502 362 498T436 478T485 432T503 351V114ZM359 301L273 270Q253 263 237 253T211 228T195 189T189 132Q189 113 192 96T205 65T228 44T263 36Q299 36 318 56T347 104T357 162T359 215V301ZM127 628Q127 655 146 674T193 694Q220 694 239 675T259 628Q259 601 240 582T193 562Q166 562 147 581T127 628ZM337 628Q337 655 356 674T403 694Q430 694 449 675T469 628Q469 601 450 582T403 562Q376 562 357 581T337 628Z"  />
<glyph unicode="&#xE5;" horiz-adv-x="593" d="M503 114Q503 90 505 74T515 48T537 34T574 30V0Q546 -2 518 -4T462 -6Q417 -6 393 8T362 66H360Q352 42 335 27T295 4T247 -8T198 -12Q122 -12 84 31T45 147Q45 192 61 218T106 260T174 283T259 301Q268 303 281 306T308 314T335 322T359 331V393Q359 410 356 424T343 449T316 466T271 472Q237 472 222 462T200 438T194 406T189 374T174 349T134 339Q111 339 95 350T79 393Q79 426 98 447T147 480T209 497T269 502Q319 502 362 498T436 478T485 432T503 351V114ZM359 301L273 270Q253 263 237 253T211 228T195 189T189 132Q189 113 192 96T205 65T228 44T263 36Q299 36 318 56T347 104T357 162T359 215V301ZM192 644Q192 689 222 719T298 750Q343 750 373 720T404 644Q404 599 374 569T298 538Q253 538 223 568T192 644ZM356 644Q356 668 339 685T298 702Q274 702 257 685T240 644Q240 620 257 603T298 586Q322 586 339 603T356 644Z"  />
<glyph unicode="&#xE6;" horiz-adv-x="870" d="M45 147Q45 186 57 210T89 249T139 272T201 288T272 305T348 331V393Q348 428 331 450T271 472Q237 472 222 462T200 438T194 406T189 374T174 349T134 339Q111 339 95 350T79 393Q79 426 99 447T148 480T211 497T274 502Q291 502 312 500T353 491T392 472T424 439Q456 470 503 486T601 502Q650 502 692 487T765 442T815 369T833 270H492V227Q492 194 496 159T515 96T555 49T627 30Q690 30 731 63T797 150L824 138Q794 63 737 26T601 -12Q529 -12 472 12T377 102Q360 44 315 16T203 -12Q123 -12 84 31T45 147ZM348 301L267 270Q248 263 234 253T209 228T194 189T189 132Q189 113 192 96T204 65T225 44T258 36Q291 36 309 56T336 104T346 162T348 215V301ZM677 300V346Q677 367 674 389T661 430T636 460T595 472Q558 472 538 454T508 410T496 354T492 300H677Z"  />
<glyph unicode="&#xE7;" horiz-adv-x="556" d="M214 -165Q230 -171 245 -174T278 -178Q331 -178 331 -138Q331 -120 317 -111T287 -102Q280 -102 273 -103T257 -106L246 -98L285 -10Q231 -7 187 12T111 64T62 143T45 245Q45 300 64 347T117 429T200 482T305 502Q334 502 368 498T431 479T479 440T498 373Q498 345 482 331T439 317Q395 317 381 339T366 401Q366 435 352 453T305 472Q266 472 245 453T214 403T203 330T201 245Q201 210 204 172T221 103T261 51T334 30Q366 30 390 40T432 68T464 109T488 160L515 148Q492 79 447 37T327 -10L303 -65Q311 -63 320 -62T341 -60Q357 -60 372 -63T400 -75T419 -96T427 -130Q427 -158 414 -175T379 -203T333 -216T285 -220Q267 -220 243 -215T198 -202L214 -165Z"  />
<glyph unicode="&#xE8;" horiz-adv-x="574" d="M201 270V227Q201 194 205 159T223 96T262 49T331 30Q394 30 435 63T501 150L528 138Q498 63 441 26T305 -12Q247 -12 199 6T117 57T64 138T45 245Q45 300 64 347T117 429T200 482T305 502Q354 502 396 487T469 442T519 369T537 270H201ZM381 300V346Q381 367 378 389T365 430T340 460T299 472Q264 472 245 454T217 410T205 354T201 300H381ZM331 555L178 647Q160 658 155 670T149 693Q149 710 161 723T197 737Q217 737 232 725T270 687L387 555H331Z"  />
<glyph unicode="&#xE9;" horiz-adv-x="574" d="M201 270V227Q201 194 205 159T223 96T262 49T331 30Q394 30 435 63T501 150L528 138Q498 63 441 26T305 -12Q247 -12 199 6T117 57T64 138T45 245Q45 300 64 347T117 429T200 482T305 502Q354 502 396 487T469 442T519 369T537 270H201ZM381 300V346Q381 367 378 389T365 430T340 460T299 472Q264 472 245 454T217 410T205 354T201 300H381ZM240 555L357 687Q380 712 395 724T430 737Q454 737 466 724T478 693Q478 682 473 670T449 647L296 555H240Z"  />
<glyph unicode="&#xEA;" horiz-adv-x="574" d="M201 270V227Q201 194 205 159T223 96T262 49T331 30Q394 30 435 63T501 150L528 138Q498 63 441 26T305 -12Q247 -12 199 6T117 57T64 138T45 245Q45 300 64 347T117 429T200 482T305 502Q354 502 396 487T469 442T519 369T537 270H201ZM381 300V346Q381 367 378 389T365 430T340 460T299 472Q264 472 245 454T217 410T205 354T201 300H381ZM250 731H342L464 555H408L296 653L184 555H128L250 731Z"  />
<glyph unicode="&#xEB;" horiz-adv-x="574" d="M201 270V227Q201 194 205 159T223 96T262 49T331 30Q394 30 435 63T501 150L528 138Q498 63 441 26T305 -12Q247 -12 199 6T117 57T64 138T45 245Q45 300 64 347T117 429T200 482T305 502Q354 502 396 487T469 442T519 369T537 270H201ZM381 300V346Q381 367 378 389T365 430T340 460T299 472Q264 472 245 454T217 410T205 354T201 300H381ZM127 628Q127 655 146 674T193 694Q220 694 239 675T259 628Q259 601 240 582T193 562Q166 562 147 581T127 628ZM337 628Q337 655 356 674T403 694Q430 694 449 675T469 628Q469 601 450 582T403 562Q376 562 357 581T337 628Z"  />
<glyph unicode="&#xEC;" horiz-adv-x="334" d="M23 30H95V460H23V490H85Q162 490 239 496V30H311V0H23V30ZM184 555L31 647Q13 658 8 670T2 693Q2 710 14 723T50 737Q70 737 85 725T123 687L240 555H184Z"  />
<glyph unicode="&#xED;" horiz-adv-x="334" d="M23 30H95V460H23V490H85Q162 490 239 496V30H311V0H23V30ZM85 555L202 687Q225 712 240 724T275 737Q299 737 311 724T323 693Q323 682 318 670T294 647L141 555H85Z"  />
<glyph unicode="&#xEE;" horiz-adv-x="334" d="M23 30H95V460H23V490H85Q162 490 239 496V30H311V0H23V30ZM122 731H214L336 555H280L168 653L56 555H0L122 731Z"  />
<glyph unicode="&#xEF;" horiz-adv-x="334" d="M23 30H95V460H23V490H85Q162 490 239 496V30H311V0H23V30ZM-2 628Q-2 655 17 674T64 694Q91 694 110 675T130 628Q130 601 111 582T64 562Q37 562 18 581T-2 628ZM208 628Q208 655 227 674T274 694Q301 694 320 675T340 628Q340 601 321 582T274 562Q247 562 228 581T208 628Z"  />
<glyph unicode="&#xF0;" horiz-adv-x="610" d="M235 644Q192 670 157 684T97 706L123 736Q141 732 164 726T211 713T258 696T301 677L431 744L469 712L351 652Q405 622 445 582T511 496T551 398T565 296Q565 144 498 66T305 -12Q242 -12 194 7T112 60T62 141T45 245Q44 294 60 338T109 417T187 470T291 490Q321 490 346 481T389 452H391Q377 503 345 545T276 613L134 541L97 573L235 644ZM201 239Q201 196 202 156T214 86T245 37T305 18Q344 18 365 36T396 85T407 156T409 239Q409 282 408 321T396 392T365 441T305 460Q266 460 245 442T214 392T203 322T201 239Z"  />
<glyph unicode="&#xF1;" horiz-adv-x="667" d="M23 30H95V460H23V490H85Q162 490 239 496V422H241Q267 462 307 482T400 502Q476 502 524 461T572 337V30H644V0H356V30H428V357Q428 386 422 405T405 435T380 450T350 454Q329 454 309 444T274 416T249 373T239 316V30H311V0H23V30ZM152 581Q158 604 166 626T187 666T220 695T267 706Q288 706 310 699T354 682T395 666T429 658Q449 658 460 673T475 705H518Q512 682 504 660T482 620T449 591T402 580Q381 580 359 587T315 604T274 620T240 628Q220 628 209 613T195 581H152Z"  />
<glyph unicode="&#xF2;" horiz-adv-x="610" d="M565 245Q565 189 546 142T493 61T410 8T305 -12Q247 -12 199 6T117 57T64 138T45 245Q45 300 64 347T117 429T200 482T305 502Q362 502 410 483T492 429T546 348T565 245ZM409 245Q409 289 408 330T396 402T365 453T305 472Q266 472 245 453T214 403T203 330T201 245Q201 201 202 160T214 88T245 37T305 18Q344 18 365 37T396 87T407 160T409 245ZM329 555L176 647Q158 658 153 670T147 693Q147 710 159 723T195 737Q215 737 230 725T268 687L385 555H329Z"  />
<glyph unicode="&#xF3;" horiz-adv-x="610" d="M565 245Q565 189 546 142T493 61T410 8T305 -12Q247 -12 199 6T117 57T64 138T45 245Q45 300 64 347T117 429T200 482T305 502Q362 502 410 483T492 429T546 348T565 245ZM409 245Q409 289 408 330T396 402T365 453T305 472Q266 472 245 453T214 403T203 330T201 245Q201 201 202 160T214 88T245 37T305 18Q344 18 365 37T396 87T407 160T409 245ZM240 555L357 687Q380 712 395 724T430 737Q454 737 466 724T478 693Q478 682 473 670T449 647L296 555H240Z"  />
<glyph unicode="&#xF4;" horiz-adv-x="610" d="M565 245Q565 189 546 142T493 61T410 8T305 -12Q247 -12 199 6T117 57T64 138T45 245Q45 300 64 347T117 429T200 482T305 502Q362 502 410 483T492 429T546 348T565 245ZM409 245Q409 289 408 330T396 402T365 453T305 472Q266 472 245 453T214 403T203 330T201 245Q201 201 202 160T214 88T245 37T305 18Q344 18 365 37T396 87T407 160T409 245ZM257 731H349L471 555H415L303 653L191 555H135L257 731Z"  />
<glyph unicode="&#xF5;" horiz-adv-x="610" d="M565 245Q565 189 546 142T493 61T410 8T305 -12Q247 -12 199 6T117 57T64 138T45 245Q45 300 64 347T117 429T200 482T305 502Q362 502 410 483T492 429T546 348T565 245ZM409 245Q409 289 408 330T396 402T365 453T305 472Q266 472 245 453T214 403T203 330T201 245Q201 201 202 160T214 88T245 37T305 18Q344 18 365 37T396 87T407 160T409 245ZM121 581Q127 604 135 626T156 666T189 695T236 706Q257 706 279 699T323 682T364 666T398 658Q418 658 429 673T444 705H487Q481 682 473 660T451 620T418 591T371 580Q350 580 328 587T284 604T243 620T209 628Q189 628 178 613T164 581H121Z"  />
<glyph unicode="&#xF6;" horiz-adv-x="610" d="M565 245Q565 189 546 142T493 61T410 8T305 -12Q247 -12 199 6T117 57T64 138T45 245Q45 300 64 347T117 429T200 482T305 502Q362 502 410 483T492 429T546 348T565 245ZM409 245Q409 289 408 330T396 402T365 453T305 472Q266 472 245 453T214 403T203 330T201 245Q201 201 202 160T214 88T245 37T305 18Q344 18 365 37T396 87T407 160T409 245ZM135 628Q135 655 154 674T201 694Q228 694 247 675T267 628Q267 601 248 582T201 562Q174 562 155 581T135 628ZM345 628Q345 655 364 674T411 694Q438 694 457 675T477 628Q477 601 458 582T411 562Q384 562 365 581T345 628Z"  />
<glyph unicode="&#xF7;" horiz-adv-x="556" d="M45 281H510V185H45V281ZM199 42Q199 74 222 97T277 120Q293 120 307 114T331 97T348 72T354 42Q354 10 332 -12T277 -35Q245 -35 222 -13T199 42ZM199 423Q199 439 205 453T222 478T247 495T277 501Q309 501 331 478T354 423Q354 391 332 369T277 346Q245 346 222 368T199 423Z"  />
<glyph unicode="&#xF8;" horiz-adv-x="610" d="M100 78Q74 110 60 152T45 245Q45 300 64 347T117 429T200 482T305 502Q358 502 402 486T481 440L549 505L577 475L509 411Q565 343 565 245Q565 189 546 142T493 61T410 8T305 -12Q197 -12 128 48L61 -15L33 14L100 78ZM206 123Q209 100 216 81T234 48T263 26T305 18Q344 18 365 37T396 87T407 160T409 245Q409 263 409 280T408 315L206 123ZM404 367Q396 414 375 443T305 472Q266 472 245 453T214 403T203 330T201 245Q201 227 201 210T202 175L404 367Z"  />
<glyph unicode="&#xF9;" horiz-adv-x="667" d="M572 30H644V0Q607 0 577 0T522 -2T473 -4T428 -6V70H426Q400 28 357 8T267 -12Q229 -12 198 -5T143 22T108 73T95 153V460H23V490H85Q162 490 239 496V123Q239 94 245 77T262 51T287 39T317 36Q365 36 396 75T428 196V460H356V490H418Q495 490 572 496V30ZM350 555L197 647Q179 658 174 670T168 693Q168 710 180 723T216 737Q236 737 251 725T289 687L406 555H350Z"  />
<glyph unicode="&#xFA;" horiz-adv-x="667" d="M572 30H644V0Q607 0 577 0T522 -2T473 -4T428 -6V70H426Q400 28 357 8T267 -12Q229 -12 198 -5T143 22T108 73T95 153V460H23V490H85Q162 490 239 496V123Q239 94 245 77T262 51T287 39T317 36Q365 36 396 75T428 196V460H356V490H418Q495 490 572 496V30ZM259 555L376 687Q399 712 414 724T449 737Q473 737 485 724T497 693Q497 682 492 670T468 647L315 555H259Z"  />
<glyph unicode="&#xFB;" horiz-adv-x="667" d="M572 30H644V0Q607 0 577 0T522 -2T473 -4T428 -6V70H426Q400 28 357 8T267 -12Q229 -12 198 -5T143 22T108 73T95 153V460H23V490H85Q162 490 239 496V123Q239 94 245 77T262 51T287 39T317 36Q365 36 396 75T428 196V460H356V490H418Q495 490 572 496V30ZM288 731H380L502 555H446L334 653L222 555H166L288 731Z"  />
<glyph unicode="&#xFC;" horiz-adv-x="667" d="M572 30H644V0Q607 0 577 0T522 -2T473 -4T428 -6V70H426Q400 28 357 8T267 -12Q229 -12 198 -5T143 22T108 73T95 153V460H23V490H85Q162 490 239 496V123Q239 94 245 77T262 51T287 39T317 36Q365 36 396 75T428 196V460H356V490H418Q495 490 572 496V30ZM163 628Q163 655 182 674T229 694Q256 694 275 675T295 628Q295 601 276 582T229 562Q202 562 183 581T163 628ZM373 628Q373 655 392 674T439 694Q466 694 485 675T505 628Q505 601 486 582T439 562Q412 562 393 581T373 628Z"  />
<glyph unicode="&#xFD;" horiz-adv-x="574" d="M466 460H394V490H570V460H504L311 -37Q299 -68 285 -100T250 -159T200 -203T129 -220Q107 -220 88 -213T53 -193T30 -161T21 -118Q21 -103 24 -89T36 -63T56 -44T86 -37Q121 -37 134 -56T147 -100Q147 -119 144 -127T140 -148Q140 -161 147 -169T168 -178Q184 -178 200 -165T230 -129T258 -79T280 -22L76 460H4V490H307V460H235L355 162L466 460ZM254 555L371 687Q394 712 409 724T444 737Q468 737 480 724T492 693Q492 682 487 670T463 647L310 555H254Z"  />
<glyph unicode="&#xFE;" horiz-adv-x="648" d="M18 -190H90V685H18V715H80Q157 715 234 721V421H236Q257 464 291 483T379 502Q434 502 476 481T546 425T588 343T603 245Q603 194 589 148T546 66T476 9T379 -12Q329 -12 294 3T236 53H234V-190H306V-220H18V-190ZM447 245Q447 289 446 329T435 399T405 448T347 466Q330 466 310 458T273 426T243 359T231 245Q231 174 240 131T264 64T301 32T347 24Q384 24 404 42T434 90T445 161T447 245Z"  />
<glyph unicode="&#xFF;" horiz-adv-x="574" d="M466 460H394V490H570V460H504L311 -37Q299 -68 285 -100T250 -159T200 -203T129 -220Q107 -220 88 -213T53 -193T30 -161T21 -118Q21 -103 24 -89T36 -63T56 -44T86 -37Q121 -37 134 -56T147 -100Q147 -119 144 -127T140 -148Q140 -161 147 -169T168 -178Q184 -178 200 -165T230 -129T258 -79T280 -22L76 460H4V490H307V460H235L355 162L466 460ZM144 628Q144 655 163 674T210 694Q237 694 256 675T276 628Q276 601 257 582T210 562Q183 562 164 581T144 628ZM354 628Q354 655 373 674T420 694Q447 694 466 675T486 628Q486 601 467 582T420 562Q393 562 374 581T354 628Z"  />
<glyph unicode="&#x100;" horiz-adv-x="741" d="M22 30H99L347 715H383L636 30H719V0H361V30H462L391 236H208L137 30H236V0H22V30ZM300 497H298L218 266H380L300 497ZM225 872H519V800H225V872Z"  />
<glyph unicode="&#x101;" horiz-adv-x="593" d="M503 114Q503 90 505 74T515 48T537 34T574 30V0Q546 -2 518 -4T462 -6Q417 -6 393 8T362 66H360Q352 42 335 27T295 4T247 -8T198 -12Q122 -12 84 31T45 147Q45 192 61 218T106 260T174 283T259 301Q268 303 281 306T308 314T335 322T359 331V393Q359 410 356 424T343 449T316 466T271 472Q237 472 222 462T200 438T194 406T189 374T174 349T134 339Q111 339 95 350T79 393Q79 426 98 447T147 480T209 497T269 502Q319 502 362 498T436 478T485 432T503 351V114ZM359 301L273 270Q253 263 237 253T211 228T195 189T189 132Q189 113 192 96T205 65T228 44T263 36Q299 36 318 56T347 104T357 162T359 215V301ZM151 665H445V593H151V665Z"  />
<glyph unicode="&#x102;" horiz-adv-x="741" d="M22 30H99L347 715H383L636 30H719V0H361V30H462L391 236H208L137 30H236V0H22V30ZM300 497H298L218 266H380L300 497ZM524 928Q522 892 513 862T485 811T438 777T373 764Q335 764 308 776T262 810T234 862T222 928H265Q282 842 373 842Q464 842 481 928H524Z"  />
<glyph unicode="&#x103;" horiz-adv-x="593" d="M503 114Q503 90 505 74T515 48T537 34T574 30V0Q546 -2 518 -4T462 -6Q417 -6 393 8T362 66H360Q352 42 335 27T295 4T247 -8T198 -12Q122 -12 84 31T45 147Q45 192 61 218T106 260T174 283T259 301Q268 303 281 306T308 314T335 322T359 331V393Q359 410 356 424T343 449T316 466T271 472Q237 472 222 462T200 438T194 406T189 374T174 349T134 339Q111 339 95 350T79 393Q79 426 98 447T147 480T209 497T269 502Q319 502 362 498T436 478T485 432T503 351V114ZM359 301L273 270Q253 263 237 253T211 228T195 189T189 132Q189 113 192 96T205 65T228 44T263 36Q299 36 318 56T347 104T357 162T359 215V301ZM448 721Q446 685 437 655T409 604T362 570T297 557Q259 557 232 569T186 603T158 655T146 721H189Q206 635 297 635Q388 635 405 721H448Z"  />
<glyph unicode="&#x104;" horiz-adv-x="741" d="M619 -150Q595 -187 568 -203T496 -220Q488 -220 473 -218T442 -207T416 -181T404 -135Q404 -92 438 -58T525 0H361V30H462L391 236H208L137 30H236V0H22V30H99L347 715H383L636 30H719V0H578Q552 -23 536 -41T510 -75T498 -104T494 -131Q494 -153 504 -165T534 -178Q554 -178 567 -167T589 -142L619 -150ZM300 497H298L218 266H380L300 497Z"  />
<glyph unicode="&#x105;" horiz-adv-x="593" d="M533 -150Q509 -187 482 -203T410 -220Q402 -220 387 -218T356 -207T330 -181T318 -135Q318 -93 349 -60T430 -4Q401 0 385 15T362 66H360Q352 42 335 27T295 4T247 -8T198 -12Q122 -12 84 31T45 147Q45 192 61 218T106 260T174 283T259 301Q268 303 281 306T308 314T335 322T359 331V393Q359 410 356 424T343 449T316 466T271 472Q237 472 222 462T200 438T194 406T189 374T174 349T134 339Q111 339 95 350T79 393Q79 426 98 447T147 480T209 497T269 502Q319 502 362 498T436 478T485 432T503 351V114Q503 90 505 74T515 48T537 34T574 30V0Q552 -2 530 -3T485 -6Q437 -48 423 -77T408 -131Q408 -153 418 -165T448 -178Q468 -178 481 -167T503 -142L533 -150ZM359 301L273 270Q253 263 237 253T211 228T195 189T189 132Q189 113 192 96T205 65T228 44T263 36Q299 36 318 56T347 104T357 162T359 215V301Z"  />
<glyph unicode="&#x106;" horiz-adv-x="758" d="M701 466H671Q668 512 649 554T599 628T529 678T446 697Q397 697 362 682T303 640T264 580T241 508T231 431T228 358Q228 327 230 290T238 214T258 141T295 78T354 35T439 18Q483 18 524 37T597 87T650 161T676 248H706V46Q678 34 645 24T576 5T504 -7T435 -12Q349 -12 280 15T162 92T87 209T60 358Q60 439 86 506T161 623T279 699T435 727Q501 727 565 712T701 669V466ZM377 762L494 894Q517 919 532 931T567 944Q591 944 603 931T615 900Q615 889 610 877T586 854L433 762H377Z"  />
<glyph unicode="&#x107;" horiz-adv-x="556" d="M515 148Q491 74 441 31T305 -12Q247 -12 199 6T117 57T64 138T45 245Q45 300 64 347T117 429T200 482T305 502Q334 502 368 498T431 479T479 440T498 373Q498 345 482 331T439 317Q395 317 381 339T366 401Q366 435 352 453T305 472Q266 472 245 453T214 403T203 330T201 245Q201 210 204 172T221 103T261 51T334 30Q366 30 390 40T432 68T464 109T488 160L515 148ZM226 555L343 687Q366 712 381 724T416 737Q440 737 452 724T464 693Q464 682 459 670T435 647L282 555H226Z"  />
<glyph unicode="&#x108;" horiz-adv-x="758" d="M701 466H671Q668 512 649 554T599 628T529 678T446 697Q397 697 362 682T303 640T264 580T241 508T231 431T228 358Q228 327 230 290T238 214T258 141T295 78T354 35T439 18Q483 18 524 37T597 87T650 161T676 248H706V46Q678 34 645 24T576 5T504 -7T435 -12Q349 -12 280 15T162 92T87 209T60 358Q60 439 86 506T161 623T279 699T435 727Q501 727 565 712T701 669V466ZM392 938H484L606 762H550L438 860L326 762H270L392 938Z"  />
<glyph unicode="&#x109;" horiz-adv-x="556" d="M515 148Q491 74 441 31T305 -12Q247 -12 199 6T117 57T64 138T45 245Q45 300 64 347T117 429T200 482T305 502Q334 502 368 498T431 479T479 440T498 373Q498 345 482 331T439 317Q395 317 381 339T366 401Q366 435 352 453T305 472Q266 472 245 453T214 403T203 330T201 245Q201 210 204 172T221 103T261 51T334 30Q366 30 390 40T432 68T464 109T488 160L515 148ZM259 731H351L473 555H417L305 653L193 555H137L259 731Z"  />
<glyph unicode="&#x10A;" horiz-adv-x="758" d="M701 466H671Q668 512 649 554T599 628T529 678T446 697Q397 697 362 682T303 640T264 580T241 508T231 431T228 358Q228 327 230 290T238 214T258 141T295 78T354 35T439 18Q483 18 524 37T597 87T650 161T676 248H706V46Q678 34 645 24T576 5T504 -7T435 -12Q349 -12 280 15T162 92T87 209T60 358Q60 439 86 506T161 623T279 699T435 727Q501 727 565 712T701 669V466ZM371 836Q371 863 390 882T437 902Q464 902 483 883T503 836Q503 809 484 790T437 770Q410 770 391 789T371 836Z"  />
<glyph unicode="&#x10B;" horiz-adv-x="556" d="M515 148Q491 74 441 31T305 -12Q247 -12 199 6T117 57T64 138T45 245Q45 300 64 347T117 429T200 482T305 502Q334 502 368 498T431 479T479 440T498 373Q498 345 482 331T439 317Q395 317 381 339T366 401Q366 435 352 453T305 472Q266 472 245 453T214 403T203 330T201 245Q201 210 204 172T221 103T261 51T334 30Q366 30 390 40T432 68T464 109T488 160L515 148ZM239 629Q239 656 258 675T305 695Q332 695 351 676T371 629Q371 602 352 583T305 563Q278 563 259 582T239 629Z"  />
<glyph unicode="&#x10C;" horiz-adv-x="758" d="M701 466H671Q668 512 649 554T599 628T529 678T446 697Q397 697 362 682T303 640T264 580T241 508T231 431T228 358Q228 327 230 290T238 214T258 141T295 78T354 35T439 18Q483 18 524 37T597 87T650 161T676 248H706V46Q678 34 645 24T576 5T504 -7T435 -12Q349 -12 280 15T162 92T87 209T60 358Q60 439 86 506T161 623T279 699T435 727Q501 727 565 712T701 669V466ZM269 952H325L437 854L549 952H605L483 776H391L269 952Z"  />
<glyph unicode="&#x10D;" horiz-adv-x="556" d="M515 148Q491 74 441 31T305 -12Q247 -12 199 6T117 57T64 138T45 245Q45 300 64 347T117 429T200 482T305 502Q334 502 368 498T431 479T479 440T498 373Q498 345 482 331T439 317Q395 317 381 339T366 401Q366 435 352 453T305 472Q266 472 245 453T214 403T203 330T201 245Q201 210 204 172T221 103T261 51T334 30Q366 30 390 40T432 68T464 109T488 160L515 148ZM137 731H193L305 633L417 731H473L351 555H259L137 731Z"  />
<glyph unicode="&#x10E;" horiz-adv-x="870" d="M30 30H126V685H30V715H417Q505 715 577 697T702 638T782 528T810 357Q810 256 782 188T702 78T578 18T417 0H30V30ZM282 30H339Q375 30 411 32T479 44T540 74T589 131T622 223T634 357Q634 436 623 491T591 583T545 640T491 671T433 683T377 685H282V30ZM222 952H278L390 854L502 952H558L436 776H344L222 952Z"  />
<glyph unicode="&#x10F;" horiz-adv-x="648" d="M410 58H408Q394 36 377 22T341 1T302 -9T261 -12Q204 -12 163 8T96 64T58 146T45 245Q45 296 59 342T102 424T172 481T269 502Q317 502 354 485T408 430H410V685H338V715H400Q477 715 554 721V30H626V0Q589 0 559 0T504 -2T455 -4T410 -6V58ZM413 245Q413 275 411 312T397 383T363 438T301 460Q264 460 243 443T212 397T200 329T197 245Q197 136 220 83T301 30Q340 30 362 50T396 101T410 171T413 245ZM587 486L626 669Q632 697 646 709T678 721Q696 721 707 710T719 680Q719 661 703 632L622 486H587Z"  />
<glyph unicode="&#x110;" horiz-adv-x="870" d="M30 30H126V348H30V390H126V685H30V715H417Q505 715 577 697T702 638T782 528T810 357Q810 256 782 188T702 78T578 18T417 0H30V30ZM282 30H339Q375 30 411 32T479 44T540 74T589 131T622 223T634 357Q634 436 623 491T591 583T545 640T491 671T433 683T377 685H282V390H442V348H282V30Z"  />
<glyph unicode="&#x111;" horiz-adv-x="648" d="M284 600H410V685H338V715H400Q477 715 554 721V600H642V558H554V30H626V0Q589 0 559 0T504 -2T455 -4T410 -6V58H408Q394 36 377 22T341 1T302 -9T261 -12Q204 -12 163 8T96 64T58 146T45 245Q45 296 59 342T102 424T172 481T269 502Q317 502 354 485T408 430H410V558H284V600ZM413 245Q413 275 411 312T397 383T363 438T301 460Q264 460 243 443T212 397T200 329T197 245Q197 136 220 83T301 30Q340 30 362 50T396 101T410 171T413 245Z"  />
<glyph unicode="&#x112;" horiz-adv-x="722" d="M30 30H126V685H30V715H648V489H618Q610 547 588 584T531 644T452 676T354 685H282V380Q360 380 403 415T447 525H477V199H447Q447 243 436 272T404 318T352 343T282 350V30H387Q429 30 472 39T552 73T613 137T646 241H676V0H30V30ZM214 872H508V800H214V872Z"  />
<glyph unicode="&#x113;" horiz-adv-x="574" d="M201 270V227Q201 194 205 159T223 96T262 49T331 30Q394 30 435 63T501 150L528 138Q498 63 441 26T305 -12Q247 -12 199 6T117 57T64 138T45 245Q45 300 64 347T117 429T200 482T305 502Q354 502 396 487T469 442T519 369T537 270H201ZM381 300V346Q381 367 378 389T365 430T340 460T299 472Q264 472 245 454T217 410T205 354T201 300H381ZM153 665H447V593H153V665Z"  />
<glyph unicode="&#x114;" horiz-adv-x="722" d="M30 30H126V685H30V715H648V489H618Q610 547 588 584T531 644T452 676T354 685H282V380Q360 380 403 415T447 525H477V199H447Q447 243 436 272T404 318T352 343T282 350V30H387Q429 30 472 39T552 73T613 137T646 241H676V0H30V30ZM512 928Q510 892 501 862T473 811T426 777T361 764Q323 764 296 776T250 810T222 862T210 928H253Q270 842 361 842Q452 842 469 928H512Z"  />
<glyph unicode="&#x115;" horiz-adv-x="574" d="M201 270V227Q201 194 205 159T223 96T262 49T331 30Q394 30 435 63T501 150L528 138Q498 63 441 26T305 -12Q247 -12 199 6T117 57T64 138T45 245Q45 300 64 347T117 429T200 482T305 502Q354 502 396 487T469 442T519 369T537 270H201ZM381 300V346Q381 367 378 389T365 430T340 460T299 472Q264 472 245 454T217 410T205 354T201 300H381ZM449 721Q447 685 438 655T410 604T363 570T298 557Q260 557 233 569T187 603T159 655T147 721H190Q207 635 298 635Q389 635 406 721H449Z"  />
<glyph unicode="&#x116;" horiz-adv-x="722" d="M30 30H126V685H30V715H648V489H618Q610 547 588 584T531 644T452 676T354 685H282V380Q360 380 403 415T447 525H477V199H447Q447 243 436 272T404 318T352 343T282 350V30H387Q429 30 472 39T552 73T613 137T646 241H676V0H30V30ZM295 836Q295 863 314 882T361 902Q388 902 407 883T427 836Q427 809 408 790T361 770Q334 770 315 789T295 836Z"  />
<glyph unicode="&#x117;" horiz-adv-x="574" d="M201 270V227Q201 194 205 159T223 96T262 49T331 30Q394 30 435 63T501 150L528 138Q498 63 441 26T305 -12Q247 -12 199 6T117 57T64 138T45 245Q45 300 64 347T117 429T200 482T305 502Q354 502 396 487T469 442T519 369T537 270H201ZM381 300V346Q381 367 378 389T365 430T340 460T299 472Q264 472 245 454T217 410T205 354T201 300H381ZM231 629Q231 656 250 675T297 695Q324 695 343 676T363 629Q363 602 344 583T297 563Q270 563 251 582T231 629Z"  />
<glyph unicode="&#x118;" horiz-adv-x="722" d="M30 30H126V685H30V715H648V489H618Q610 547 588 584T531 644T452 676T354 685H282V380Q360 380 403 415T447 525H477V199H447Q447 243 436 272T404 318T352 343T282 350V30H387Q429 30 472 39T552 73T613 137T646 241H676V0H615Q589 -23 573 -41T547 -75T535 -104T531 -131Q531 -153 541 -165T571 -178Q591 -178 604 -167T626 -142L656 -150Q632 -187 605 -203T533 -220Q525 -220 510 -218T479 -207T453 -181T441 -135Q441 -92 475 -58T562 0H30V30Z"  />
<glyph unicode="&#x119;" horiz-adv-x="574" d="M429 -150Q405 -187 378 -203T306 -220Q298 -220 283 -218T252 -207T226 -181T214 -135Q214 -97 241 -66T310 -12H305Q247 -12 199 6T117 57T64 138T45 245Q45 300 64 347T117 429T200 482T305 502Q354 502 396 487T469 442T519 369T537 270H201V227Q201 194 205 159T223 96T262 49T331 30Q394 30 435 63T501 150L528 138Q506 84 471 50T388 0Q362 -23 346 -41T320 -75T308 -104T304 -131Q304 -153 314 -165T344 -178Q364 -178 377 -167T399 -142L429 -150ZM381 300V346Q381 367 378 389T365 430T340 460T299 472Q264 472 245 454T217 410T205 354T201 300H381Z"  />
<glyph unicode="&#x11A;" horiz-adv-x="722" d="M30 30H126V685H30V715H648V489H618Q610 547 588 584T531 644T452 676T354 685H282V380Q360 380 403 415T447 525H477V199H447Q447 243 436 272T404 318T352 343T282 350V30H387Q429 30 472 39T552 73T613 137T646 241H676V0H30V30ZM192 952H248L360 854L472 952H528L406 776H314L192 952Z"  />
<glyph unicode="&#x11B;" horiz-adv-x="574" d="M201 270V227Q201 194 205 159T223 96T262 49T331 30Q394 30 435 63T501 150L528 138Q498 63 441 26T305 -12Q247 -12 199 6T117 57T64 138T45 245Q45 300 64 347T117 429T200 482T305 502Q354 502 396 487T469 442T519 369T537 270H201ZM381 300V346Q381 367 378 389T365 430T340 460T299 472Q264 472 245 454T217 410T205 354T201 300H381ZM129 731H185L297 633L409 731H465L343 555H251L129 731Z"  />
<glyph unicode="&#x11C;" horiz-adv-x="852" d="M517 353H849V323H761V72Q688 39 608 14T436 -12Q352 -12 283 14T164 89T87 207T60 361Q60 446 92 513T178 628T306 701T462 727Q530 727 596 713T726 677V495H696Q690 540 672 577T625 641T558 682T475 697Q400 697 352 669T277 594T239 485T228 358Q228 327 230 290T238 214T258 141T295 78T353 35T438 18Q474 18 504 25T557 46T592 84T605 140V323H517V353ZM410 938H502L624 762H568L456 860L344 762H288L410 938Z"  />
<glyph unicode="&#x11D;" horiz-adv-x="610" d="M320 121Q359 120 399 117T471 99T524 56T545 -24Q545 -78 523 -115T463 -176T376 -209T273 -220Q259 -220 237 -219T188 -213T136 -201T87 -178T52 -144T38 -95Q38 -71 48 -54T75 -23T112 -3T154 7V9Q106 14 79 45T51 125Q51 167 76 198T139 243Q122 258 109 283T95 337Q95 380 111 411T155 462T219 492T294 502Q333 502 372 490T440 450Q447 458 454 467T472 484T494 497T524 502Q553 502 576 481T599 426Q599 404 585 393T552 382Q534 382 524 387T510 401T504 419T503 438Q503 454 490 454Q484 454 476 447T459 431Q481 389 481 345Q481 304 464 275T419 227T356 199T285 190Q251 190 221 197T163 225Q136 213 124 203T111 175Q111 160 119 150T139 135T167 128T197 125L320 121ZM461 -86Q461 -55 442 -38T394 -14T336 -5T284 -3Q252 -3 224 -5T174 -16T141 -43T128 -96Q128 -121 140 -139T172 -168T220 -184T276 -190Q296 -190 327 -188T388 -175T439 -144T461 -86ZM288 220Q313 220 326 233T346 266T354 308T355 346Q355 362 354 384T347 425T327 458T288 472Q263 472 250 459T230 426T222 384T221 346Q221 330 222 308T229 267T249 234T288 220ZM243 731H335L457 555H401L289 653L177 555H121L243 731Z"  />
<glyph unicode="&#x11E;" horiz-adv-x="852" d="M517 353H849V323H761V72Q688 39 608 14T436 -12Q352 -12 283 14T164 89T87 207T60 361Q60 446 92 513T178 628T306 701T462 727Q530 727 596 713T726 677V495H696Q690 540 672 577T625 641T558 682T475 697Q400 697 352 669T277 594T239 485T228 358Q228 327 230 290T238 214T258 141T295 78T353 35T438 18Q474 18 504 25T557 46T592 84T605 140V323H517V353ZM607 928Q605 892 596 862T568 811T521 777T456 764Q418 764 391 776T345 810T317 862T305 928H348Q365 842 456 842Q547 842 564 928H607Z"  />
<glyph unicode="&#x11F;" horiz-adv-x="610" d="M320 121Q359 120 399 117T471 99T524 56T545 -24Q545 -78 523 -115T463 -176T376 -209T273 -220Q259 -220 237 -219T188 -213T136 -201T87 -178T52 -144T38 -95Q38 -71 48 -54T75 -23T112 -3T154 7V9Q106 14 79 45T51 125Q51 167 76 198T139 243Q122 258 109 283T95 337Q95 380 111 411T155 462T219 492T294 502Q333 502 372 490T440 450Q447 458 454 467T472 484T494 497T524 502Q553 502 576 481T599 426Q599 404 585 393T552 382Q534 382 524 387T510 401T504 419T503 438Q503 454 490 454Q484 454 476 447T459 431Q481 389 481 345Q481 304 464 275T419 227T356 199T285 190Q251 190 221 197T163 225Q136 213 124 203T111 175Q111 160 119 150T139 135T167 128T197 125L320 121ZM461 -86Q461 -55 442 -38T394 -14T336 -5T284 -3Q252 -3 224 -5T174 -16T141 -43T128 -96Q128 -121 140 -139T172 -168T220 -184T276 -190Q296 -190 327 -188T388 -175T439 -144T461 -86ZM288 220Q313 220 326 233T346 266T354 308T355 346Q355 362 354 384T347 425T327 458T288 472Q263 472 250 459T230 426T222 384T221 346Q221 330 222 308T229 267T249 234T288 220ZM440 721Q438 685 429 655T401 604T354 570T289 557Q251 557 224 569T178 603T150 655T138 721H181Q198 635 289 635Q380 635 397 721H440Z"  />
<glyph unicode="&#x120;" horiz-adv-x="852" d="M517 353H849V323H761V72Q688 39 608 14T436 -12Q352 -12 283 14T164 89T87 207T60 361Q60 446 92 513T178 628T306 701T462 727Q530 727 596 713T726 677V495H696Q690 540 672 577T625 641T558 682T475 697Q400 697 352 669T277 594T239 485T228 358Q228 327 230 290T238 214T258 141T295 78T353 35T438 18Q474 18 504 25T557 46T592 84T605 140V323H517V353ZM390 836Q390 863 409 882T456 902Q483 902 502 883T522 836Q522 809 503 790T456 770Q429 770 410 789T390 836Z"  />
<glyph unicode="&#x121;" horiz-adv-x="610" d="M320 121Q359 120 399 117T471 99T524 56T545 -24Q545 -78 523 -115T463 -176T376 -209T273 -220Q259 -220 237 -219T188 -213T136 -201T87 -178T52 -144T38 -95Q38 -71 48 -54T75 -23T112 -3T154 7V9Q106 14 79 45T51 125Q51 167 76 198T139 243Q122 258 109 283T95 337Q95 380 111 411T155 462T219 492T294 502Q333 502 372 490T440 450Q447 458 454 467T472 484T494 497T524 502Q553 502 576 481T599 426Q599 404 585 393T552 382Q534 382 524 387T510 401T504 419T503 438Q503 454 490 454Q484 454 476 447T459 431Q481 389 481 345Q481 304 464 275T419 227T356 199T285 190Q251 190 221 197T163 225Q136 213 124 203T111 175Q111 160 119 150T139 135T167 128T197 125L320 121ZM461 -86Q461 -55 442 -38T394 -14T336 -5T284 -3Q252 -3 224 -5T174 -16T141 -43T128 -96Q128 -121 140 -139T172 -168T220 -184T276 -190Q296 -190 327 -188T388 -175T439 -144T461 -86ZM288 220Q313 220 326 233T346 266T354 308T355 346Q355 362 354 384T347 425T327 458T288 472Q263 472 250 459T230 426T222 384T221 346Q221 330 222 308T229 267T249 234T288 220ZM223 629Q223 656 242 675T289 695Q316 695 335 676T355 629Q355 602 336 583T289 563Q262 563 243 582T223 629Z"  />
<glyph unicode="&#x122;" horiz-adv-x="852" d="M517 353H849V323H761V72Q688 39 608 14T436 -12Q352 -12 283 14T164 89T87 207T60 361Q60 446 92 513T178 628T306 701T462 727Q530 727 596 713T726 677V495H696Q690 540 672 577T625 641T558 682T475 697Q400 697 352 669T277 594T239 485T228 358Q228 327 230 290T238 214T258 141T295 78T353 35T438 18Q474 18 504 25T557 46T592 84T605 140V323H517V353ZM368 -285L407 -102Q413 -74 427 -62T459 -50Q477 -50 488 -61T500 -91Q500 -110 484 -139L403 -285H368Z"  />
<glyph unicode="&#x123;" horiz-adv-x="610" d="M320 121Q359 120 399 117T471 99T524 56T545 -24Q545 -78 523 -115T463 -176T376 -209T273 -220Q259 -220 237 -219T188 -213T136 -201T87 -178T52 -144T38 -95Q38 -71 48 -54T75 -23T112 -3T154 7V9Q106 14 79 45T51 125Q51 167 76 198T139 243Q122 258 109 283T95 337Q95 380 111 411T155 462T219 492T294 502Q333 502 372 490T440 450Q447 458 454 467T472 484T494 497T524 502Q553 502 576 481T599 426Q599 404 585 393T552 382Q534 382 524 387T510 401T504 419T503 438Q503 454 490 454Q484 454 476 447T459 431Q481 389 481 345Q481 304 464 275T419 227T356 199T285 190Q251 190 221 197T163 225Q136 213 124 203T111 175Q111 160 119 150T139 135T167 128T197 125L320 121ZM461 -86Q461 -55 442 -38T394 -14T336 -5T284 -3Q252 -3 224 -5T174 -16T141 -43T128 -96Q128 -121 140 -139T172 -168T220 -184T276 -190Q296 -190 327 -188T388 -175T439 -144T461 -86ZM288 220Q313 220 326 233T346 266T354 308T355 346Q355 362 354 384T347 425T327 458T288 472Q263 472 250 459T230 426T222 384T221 346Q221 330 222 308T229 267T249 234T288 220ZM376 787L337 604Q331 576 317 564T285 552Q267 552 256 563T244 593Q244 612 260 641L341 787H376Z"  />
<glyph unicode="&#x124;" horiz-adv-x="852" d="M30 30H126V685H30V715H378V685H282V380H570V685H474V715H822V685H726V30H822V0H474V30H570V350H282V30H378V0H30V30ZM378 938H470L592 762H536L424 860L312 762H256L378 938Z"  />
<glyph unicode="&#x125;" horiz-adv-x="667" d="M23 30H95V685H23V715H85Q162 715 239 721V422H241Q267 462 307 482T400 502Q476 502 524 461T572 337V30H644V0H356V30H428V357Q428 386 422 405T405 435T380 450T350 454Q329 454 309 444T274 416T249 373T239 316V30H311V0H23V30ZM283 946H375L497 770H441L329 868L217 770H161L283 946Z"  />
<glyph unicode="&#x126;" horiz-adv-x="852" d="M30 30H126V685H30V715H378V685H282V548H570V685H474V715H822V685H726V30H822V0H474V30H570V350H282V30H378V0H30V30ZM570 380V506H282V380H570Z"  />
<glyph unicode="&#x127;" horiz-adv-x="667" d="M9 600H95V685H23V715H85Q162 715 239 721V600H370V557H239V422H241Q267 462 307 482T400 502Q476 502 524 461T572 337V30H644V0H356V30H428V357Q428 386 422 405T405 435T380 450T350 454Q329 454 309 444T274 416T249 373T239 316V30H311V0H23V30H95V557H9V600Z"  />
<glyph unicode="&#x128;" horiz-adv-x="408" d="M30 30H126V685H30V715H378V685H282V30H378V0H30V30ZM22 788Q28 811 36 833T57 873T90 902T137 913Q158 913 180 906T224 889T265 873T299 865Q319 865 330 880T345 912H388Q382 889 374 867T352 827T319 798T272 787Q251 787 229 794T185 811T144 827T110 835Q90 835 79 820T65 788H22Z"  />
<glyph unicode="&#x129;" horiz-adv-x="334" d="M23 30H95V460H23V490H85Q162 490 239 496V30H311V0H23V30ZM-14 581Q-8 604 0 626T21 666T54 695T101 706Q122 706 144 699T188 682T229 666T263 658Q283 658 294 673T309 705H352Q346 682 338 660T316 620T283 591T236 580Q215 580 193 587T149 604T108 620T74 628Q54 628 43 613T29 581H-14Z"  />
<glyph unicode="&#x12A;" horiz-adv-x="408" d="M30 30H126V685H30V715H378V685H282V30H378V0H30V30ZM56 872H350V800H56V872Z"  />
<glyph unicode="&#x12B;" horiz-adv-x="334" d="M23 30H95V460H23V490H85Q162 490 239 496V30H311V0H23V30ZM21 665H315V593H21V665Z"  />
<glyph unicode="&#x12E;" horiz-adv-x="408" d="M30 30H126V685H30V715H378V685H282V30H378V0H261Q235 -23 219 -41T193 -75T181 -104T177 -131Q177 -153 187 -165T217 -178Q237 -178 250 -167T272 -142L302 -150Q278 -187 251 -203T179 -220Q171 -220 156 -218T125 -207T99 -181T87 -135Q87 -92 121 -58T208 0H30V30Z"  />
<glyph unicode="&#x12F;" horiz-adv-x="334" d="M23 30H95V460H23V490H85Q162 490 239 496V30H311V0H229Q203 -23 187 -41T161 -75T149 -104T145 -131Q145 -153 155 -165T185 -178Q205 -178 218 -167T240 -142L270 -150Q246 -187 219 -203T147 -220Q139 -220 124 -218T93 -207T67 -181T55 -135Q55 -92 89 -58T176 0H23V30ZM89 649Q89 681 112 704T167 727Q199 727 222 704T245 649Q245 617 222 594T167 571Q135 571 112 594T89 649Z"  />
<glyph unicode="&#x130;" horiz-adv-x="408" d="M30 30H126V685H30V715H378V685H282V30H378V0H30V30ZM138 836Q138 863 157 882T204 902Q231 902 250 883T270 836Q270 809 251 790T204 770Q177 770 158 789T138 836Z"  />
<glyph unicode="&#x131;" horiz-adv-x="334" d="M23 30H95V460H23V490H85Q162 490 239 496V30H311V0H23V30Z"  />
<glyph unicode="&#x132;" horiz-adv-x="930" d="M30 30H126V685H30V715H378V685H282V30H378V0H30V30ZM552 715H900V685H804V172Q804 132 795 99T763 41T698 2T593 -12Q560 -12 527 -7T467 13T424 52T407 116Q407 128 410 141T422 166T445 184T480 191Q514 191 529 172T545 123Q545 103 539 93T525 76T511 63T504 47Q504 33 520 26T556 18Q604 18 626 40T648 116V685H552V715Z"  />
<glyph unicode="&#x133;" horiz-adv-x="638" d="M23 30H95V460H23V490H85Q162 490 239 496V30H311V0H23V30ZM89 649Q89 681 112 704T167 727Q199 727 222 704T245 649Q245 617 222 594T167 571Q135 571 112 594T89 649ZM304 -190Q357 -190 378 -160T399 -83V460H327V490H389Q466 490 543 496V23Q543 -24 537 -66T507 -141T435 -195T304 -220V-190ZM393 649Q393 681 416 704T471 727Q503 727 526 704T549 649Q549 617 526 594T471 571Q439 571 416 594T393 649Z"  />
<glyph unicode="&#x134;" horiz-adv-x="519" d="M141 715H489V685H393V172Q393 132 384 99T352 41T287 2T182 -12Q149 -12 116 -7T56 13T13 52T-4 116Q-4 128 -1 141T11 166T34 184T69 191Q103 191 118 172T134 123Q134 103 128 93T114 76T100 63T93 47Q93 33 109 26T145 18Q193 18 215 40T237 116V685H141V715ZM265 938H357L479 762H423L311 860L199 762H143L265 938Z"  />
<glyph unicode="&#x135;" horiz-adv-x="334" d="M0 -190Q53 -190 74 -160T95 -83V460H23V490H85Q162 490 239 496V23Q239 -24 233 -66T203 -141T131 -195T0 -220V-190ZM118 731H210L332 555H276L164 653L52 555H-4L118 731Z"  />
<glyph unicode="&#x136;" horiz-adv-x="796" d="M30 30H126V685H30V715H378V685H282V392H337L565 685H461V715H713V685H609L444 478L724 30H796V0H445V30H535L338 362H282V30H378V0H30V30ZM319 -285L358 -102Q364 -74 378 -62T410 -50Q428 -50 439 -61T451 -91Q451 -110 435 -139L354 -285H319Z"  />
<glyph unicode="&#x137;" horiz-adv-x="648" d="M23 30H95V685H23V715H85Q162 715 239 721V266H298L414 460H336V490H540V460H456L383 341L593 30H641V0H358V30H424L285 236H239V30H311V0H23V30ZM237 -285L276 -102Q282 -74 296 -62T328 -50Q346 -50 357 -61T369 -91Q369 -110 353 -139L272 -285H237Z"  />
<glyph unicode="&#x139;" horiz-adv-x="722" d="M30 30H126V685H30V715H378V685H282V30H399Q441 30 484 39T564 74T625 141T658 250H688V0H30V30ZM178 762L295 894Q318 919 333 931T368 944Q392 944 404 931T416 900Q416 889 411 877T387 854L234 762H178Z"  />
<glyph unicode="&#x13A;" horiz-adv-x="334" d="M23 30H95V685H23V715H85Q162 715 239 721V30H311V0H23V30ZM95 762L212 894Q235 919 250 931T285 944Q309 944 321 931T333 900Q333 889 328 877T304 854L151 762H95Z"  />
<glyph unicode="&#x13B;" horiz-adv-x="722" d="M30 30H126V685H30V715H378V685H282V30H399Q441 30 484 39T564 74T625 141T658 250H688V0H30V30ZM269 -285L308 -102Q314 -74 328 -62T360 -50Q378 -50 389 -61T401 -91Q401 -110 385 -139L304 -285H269Z"  />
<glyph unicode="&#x13C;" horiz-adv-x="334" d="M23 30H95V685H23V715H85Q162 715 239 721V30H311V0H23V30ZM78 -285L117 -102Q123 -74 137 -62T169 -50Q187 -50 198 -61T210 -91Q210 -110 194 -139L113 -285H78Z"  />
<glyph unicode="&#x13D;" horiz-adv-x="722" d="M30 30H126V685H30V715H378V685H282V30H399Q441 30 484 39T564 74T625 141T658 250H688V0H30V30ZM384 483L423 666Q429 694 443 706T475 718Q493 718 504 707T516 677Q516 658 500 629L419 483H384Z"  />
<glyph unicode="&#x13E;" horiz-adv-x="334" d="M23 30H95V685H23V715H85Q162 715 239 721V30H311V0H23V30ZM272 486L311 669Q317 697 331 709T363 721Q381 721 392 710T404 680Q404 661 388 632L307 486H272Z"  />
<glyph unicode="&#x13F;" horiz-adv-x="722" d="M30 30H126V685H30V715H378V685H282V30H399Q441 30 484 39T564 74T625 141T658 250H688V0H30V30ZM480 361Q480 388 499 407T546 427Q573 427 592 408T612 361Q612 334 593 315T546 295Q519 295 500 314T480 361Z"  />
<glyph unicode="&#x140;" horiz-adv-x="468" d="M23 30H95V685H23V715H85Q162 715 239 721V30H311V0H23V30ZM333 361Q333 388 352 407T399 427Q426 427 445 408T465 361Q465 334 446 315T399 295Q372 295 353 314T333 361Z"  />
<glyph unicode="&#x141;" horiz-adv-x="722" d="M30 30H126V259L30 192V269L126 336V685H30V715H378V685H282V445L470 577V500L282 368V30H399Q441 30 484 39T564 74T625 141T658 250H688V0H30V30Z"  />
<glyph unicode="&#x142;" horiz-adv-x="334" d="M23 30H95V320L23 268V324L95 376V685H23V715H85Q162 715 239 721V479L311 530V474L239 423V30H311V0H23V30Z"  />
<glyph unicode="&#x143;" horiz-adv-x="833" d="M25 30H125V685H25V715H312L676 243H678V685H567V715H808V685H708V-12L684 -18L157 649H155V30H265V0H25V30ZM356 762L473 894Q496 919 511 931T546 944Q570 944 582 931T594 900Q594 889 589 877T565 854L412 762H356Z"  />
<glyph unicode="&#x144;" horiz-adv-x="667" d="M23 30H95V460H23V490H85Q162 490 239 496V422H241Q267 462 307 482T400 502Q476 502 524 461T572 337V30H644V0H356V30H428V357Q428 386 422 405T405 435T380 450T350 454Q329 454 309 444T274 416T249 373T239 316V30H311V0H23V30ZM253 555L370 687Q393 712 408 724T443 737Q467 737 479 724T491 693Q491 682 486 670T462 647L309 555H253Z"  />
<glyph unicode="&#x145;" horiz-adv-x="833" d="M25 30H125V685H25V715H312L676 243H678V685H567V715H808V685H708V-12L684 -18L157 649H155V30H265V0H25V30ZM328 -285L367 -102Q373 -74 387 -62T419 -50Q437 -50 448 -61T460 -91Q460 -110 444 -139L363 -285H328Z"  />
<glyph unicode="&#x146;" horiz-adv-x="667" d="M23 30H95V460H23V490H85Q162 490 239 496V422H241Q267 462 307 482T400 502Q476 502 524 461T572 337V30H644V0H356V30H428V357Q428 386 422 405T405 435T380 450T350 454Q329 454 309 444T274 416T249 373T239 316V30H311V0H23V30ZM246 -285L285 -102Q291 -74 305 -62T337 -50Q355 -50 366 -61T378 -91Q378 -110 362 -139L281 -285H246Z"  />
<glyph unicode="&#x147;" horiz-adv-x="833" d="M25 30H125V685H25V715H312L676 243H678V685H567V715H808V685H708V-12L684 -18L157 649H155V30H265V0H25V30ZM249 952H305L417 854L529 952H585L463 776H371L249 952Z"  />
<glyph unicode="&#x148;" horiz-adv-x="667" d="M23 30H95V460H23V490H85Q162 490 239 496V422H241Q267 462 307 482T400 502Q476 502 524 461T572 337V30H644V0H356V30H428V357Q428 386 422 405T405 435T380 450T350 454Q329 454 309 444T274 416T249 373T239 316V30H311V0H23V30ZM168 731H224L336 633L448 731H504L382 555H290L168 731Z"  />
<glyph unicode="&#x149;" horiz-adv-x="667" d="M23 30H95V460H23V490H85Q162 490 239 496V422H241Q267 462 307 482T400 502Q476 502 524 461T572 337V30H644V0H356V30H428V357Q428 386 422 405T405 435T380 450T350 454Q329 454 309 444T274 416T249 373T239 316V30H311V0H23V30ZM-20 536L19 719Q25 747 39 759T71 771Q89 771 100 760T112 730Q112 711 96 682L15 536H-20Z"  />
<glyph unicode="&#x14C;" horiz-adv-x="870" d="M60 358Q60 439 86 506T161 623T279 699T435 727Q521 727 590 700T708 623T783 507T810 358Q810 277 784 209T709 92T591 16T435 -12Q349 -12 280 15T162 92T87 209T60 358ZM236 358Q236 327 238 290T246 214T265 141T300 78T355 35T435 18Q482 18 515 34T570 78T604 140T623 214T632 289T634 358Q634 389 632 426T624 501T605 574T570 637T515 680T435 697Q388 697 355 681T300 637T266 575T247 502T238 427T236 358ZM289 872H583V800H289V872Z"  />
<glyph unicode="&#x14D;" horiz-adv-x="610" d="M565 245Q565 189 546 142T493 61T410 8T305 -12Q247 -12 199 6T117 57T64 138T45 245Q45 300 64 347T117 429T200 482T305 502Q362 502 410 483T492 429T546 348T565 245ZM409 245Q409 289 408 330T396 402T365 453T305 472Q266 472 245 453T214 403T203 330T201 245Q201 201 202 160T214 88T245 37T305 18Q344 18 365 37T396 87T407 160T409 245ZM157 665H451V593H157V665Z"  />
<glyph unicode="&#x14E;" horiz-adv-x="870" d="M60 358Q60 439 86 506T161 623T279 699T435 727Q521 727 590 700T708 623T783 507T810 358Q810 277 784 209T709 92T591 16T435 -12Q349 -12 280 15T162 92T87 209T60 358ZM236 358Q236 327 238 290T246 214T265 141T300 78T355 35T435 18Q482 18 515 34T570 78T604 140T623 214T632 289T634 358Q634 389 632 426T624 501T605 574T570 637T515 680T435 697Q388 697 355 681T300 637T266 575T247 502T238 427T236 358ZM585 928Q583 892 574 862T546 811T499 777T434 764Q396 764 369 776T323 810T295 862T283 928H326Q343 842 434 842Q525 842 542 928H585Z"  />
<glyph unicode="&#x14F;" horiz-adv-x="610" d="M565 245Q565 189 546 142T493 61T410 8T305 -12Q247 -12 199 6T117 57T64 138T45 245Q45 300 64 347T117 429T200 482T305 502Q362 502 410 483T492 429T546 348T565 245ZM409 245Q409 289 408 330T396 402T365 453T305 472Q266 472 245 453T214 403T203 330T201 245Q201 201 202 160T214 88T245 37T305 18Q344 18 365 37T396 87T407 160T409 245ZM456 721Q454 685 445 655T417 604T370 570T305 557Q267 557 240 569T194 603T166 655T154 721H197Q214 635 305 635Q396 635 413 721H456Z"  />
<glyph unicode="&#x150;" horiz-adv-x="870" d="M60 358Q60 439 86 506T161 623T279 699T435 727Q521 727 590 700T708 623T783 507T810 358Q810 277 784 209T709 92T591 16T435 -12Q349 -12 280 15T162 92T87 209T60 358ZM236 358Q236 327 238 290T246 214T265 141T300 78T355 35T435 18Q482 18 515 34T570 78T604 140T623 214T632 289T634 358Q634 389 632 426T624 501T605 574T570 637T515 680T435 697Q388 697 355 681T300 637T266 575T247 502T238 427T236 358ZM278 762L395 894Q418 919 433 931T468 944Q492 944 504 931T516 900Q516 889 511 877T487 854L334 762H278ZM486 762L603 894Q626 919 641 931T676 944Q700 944 712 931T724 900Q724 889 719 877T695 854L542 762H486Z"  />
<glyph unicode="&#x151;" horiz-adv-x="610" d="M565 245Q565 189 546 142T493 61T410 8T305 -12Q247 -12 199 6T117 57T64 138T45 245Q45 300 64 347T117 429T200 482T305 502Q362 502 410 483T492 429T546 348T565 245ZM409 245Q409 289 408 330T396 402T365 453T305 472Q266 472 245 453T214 403T203 330T201 245Q201 201 202 160T214 88T245 37T305 18Q344 18 365 37T396 87T407 160T409 245ZM178 555L285 689Q306 715 321 726T355 737Q378 737 390 724T402 693Q402 681 396 669T373 646L234 555H178ZM355 555L472 687Q495 712 510 724T545 737Q569 737 581 724T593 693Q593 682 588 670T564 647L411 555H355Z"  />
<glyph unicode="&#x152;" horiz-adv-x="1167" d="M727 380Q805 380 848 415T892 525H922V199H892Q892 243 881 272T849 318T797 343T727 350V30H832Q874 30 917 39T997 73T1058 137T1091 241H1121V0H679Q644 0 612 -2T549 -6Q518 -8 490 -10T435 -12Q349 -12 280 15T162 92T87 209T60 358Q60 439 86 506T161 623T279 699T435 727Q461 727 489 725T549 721Q580 719 612 717T679 715H1093V489H1063Q1055 547 1033 584T976 644T897 676T799 685H727V380ZM571 506Q571 546 568 580T551 641T510 682T435 697Q388 697 355 681T300 637T266 575T247 502T238 427T236 358Q236 327 238 290T246 214T265 141T300 78T355 35T435 18Q483 18 510 33T550 74T567 134T571 209V506Z"  />
<glyph unicode="&#x153;" horiz-adv-x="907" d="M543 270V227Q543 194 547 159T564 96T603 49T671 30Q733 30 773 63T838 150L864 138Q835 63 778 26T645 -12Q585 -12 542 5T469 59Q442 26 401 7T305 -12Q247 -12 199 6T117 57T64 138T45 245Q45 300 64 347T117 429T200 482T305 502Q347 502 391 487T470 435Q507 471 549 486T642 502Q690 502 731 487T804 442T852 369T870 270H543ZM201 245Q201 201 202 160T213 88T243 37T300 18Q337 18 357 37T386 87T397 160T399 245Q399 289 398 330T387 402T357 453T300 472Q263 472 243 453T214 403T203 330T201 245ZM714 300V346Q714 367 711 389T700 430T676 460T638 472Q604 472 586 454T558 410T547 354T543 300H714Z"  />
<glyph unicode="&#x154;" horiz-adv-x="758" d="M30 0V30H126V685H30V715H362Q402 715 449 712T536 694T602 647T629 556Q629 513 614 482T574 429T514 394T443 371V369Q495 365 534 355T600 323T640 265T654 171Q654 144 655 119T665 73T692 41T744 28V0H638Q583 0 554 18T511 66T495 131T492 202Q492 251 481 280T450 325T403 345T344 350H282V30H395V0H30ZM282 380H345Q376 380 399 385T437 407T459 454T467 532Q467 580 459 609T434 655T390 678T322 684H282V380ZM251 762L368 894Q391 919 406 931T441 944Q465 944 477 931T489 900Q489 889 484 877T460 854L307 762H251Z"  />
<glyph unicode="&#x155;" horiz-adv-x="463" d="M23 30H95V460H23V490H85Q162 490 239 496V415H241Q256 453 290 477T367 502Q415 502 439 473T463 401Q463 370 448 352T398 334Q369 334 353 348T337 387Q337 398 337 404T338 415T338 424T339 434Q339 454 320 454Q298 454 283 432T258 377T244 307T239 241V30H311V0H23V30ZM141 555L258 687Q281 712 296 724T331 737Q355 737 367 724T379 693Q379 682 374 670T350 647L197 555H141Z"  />
<glyph unicode="&#x156;" horiz-adv-x="758" d="M30 0V30H126V685H30V715H362Q402 715 449 712T536 694T602 647T629 556Q629 513 614 482T574 429T514 394T443 371V369Q495 365 534 355T600 323T640 265T654 171Q654 144 655 119T665 73T692 41T744 28V0H638Q583 0 554 18T511 66T495 131T492 202Q492 251 481 280T450 325T403 345T344 350H282V30H395V0H30ZM282 380H345Q376 380 399 385T437 407T459 454T467 532Q467 580 459 609T434 655T390 678T322 684H282V380ZM318 -285L357 -102Q363 -74 377 -62T409 -50Q427 -50 438 -61T450 -91Q450 -110 434 -139L353 -285H318Z"  />
<glyph unicode="&#x157;" horiz-adv-x="463" d="M23 30H95V460H23V490H85Q162 490 239 496V415H241Q256 453 290 477T367 502Q415 502 439 473T463 401Q463 370 448 352T398 334Q369 334 353 348T337 387Q337 398 337 404T338 415T338 424T339 434Q339 454 320 454Q298 454 283 432T258 377T244 307T239 241V30H311V0H23V30ZM78 -285L117 -102Q123 -74 137 -62T169 -50Q187 -50 198 -61T210 -91Q210 -110 194 -139L113 -285H78Z"  />
<glyph unicode="&#x158;" horiz-adv-x="758" d="M30 0V30H126V685H30V715H362Q402 715 449 712T536 694T602 647T629 556Q629 513 614 482T574 429T514 394T443 371V369Q495 365 534 355T600 323T640 265T654 171Q654 144 655 119T665 73T692 41T744 28V0H638Q583 0 554 18T511 66T495 131T492 202Q492 251 481 280T450 325T403 345T344 350H282V30H395V0H30ZM282 380H345Q376 380 399 385T437 407T459 454T467 532Q467 580 459 609T434 655T390 678T322 684H282V380ZM176 952H232L344 854L456 952H512L390 776H298L176 952Z"  />
<glyph unicode="&#x159;" horiz-adv-x="463" d="M23 30H95V460H23V490H85Q162 490 239 496V415H241Q256 453 290 477T367 502Q415 502 439 473T463 401Q463 370 448 352T398 334Q369 334 353 348T337 387Q337 398 337 404T338 415T338 424T339 434Q339 454 320 454Q298 454 283 432T258 377T244 307T239 241V30H311V0H23V30ZM61 731H117L229 633L341 731H397L275 555H183L61 731Z"  />
<glyph unicode="&#x15A;" horiz-adv-x="593" d="M46 241H81Q83 203 99 164T142 94T209 44T297 24Q327 24 354 30T403 51T438 87T451 142Q451 186 422 213T349 261T254 299T159 343T86 409T57 512Q57 569 78 609T133 676T208 715T291 727Q313 727 334 725T380 718T431 705T493 683L501 512H467Q460 549 443 581T402 638T345 677T274 691Q225 691 193 661T161 582Q161 543 189 519T261 477T354 440T447 392T518 319T547 206Q547 158 527 118T472 49T390 4T288 -12Q228 -12 170 -1T55 35L46 241ZM239 762L356 894Q379 919 394 931T429 944Q453 944 465 931T477 900Q477 889 472 877T448 854L295 762H239Z"  />
<glyph unicode="&#x15B;" horiz-adv-x="463" d="M43 185H73Q74 151 85 121T116 68T163 32T223 18Q242 18 260 22T292 34T315 56T324 90Q324 119 304 135T253 164T187 189T121 220T71 269T50 348Q50 387 64 415T102 463T158 492T226 502Q282 502 317 492T381 470V341H351Q348 367 337 391T309 433T269 461T219 472Q189 472 168 457T146 410Q146 385 166 370T217 344T283 320T349 289T399 239T420 159Q420 117 403 86T358 32T293 -1T219 -12Q162 -12 117 0T43 23V185ZM161 555L278 687Q301 712 316 724T351 737Q375 737 387 724T399 693Q399 682 394 670T370 647L217 555H161Z"  />
<glyph unicode="&#x15C;" horiz-adv-x="593" d="M46 241H81Q83 203 99 164T142 94T209 44T297 24Q327 24 354 30T403 51T438 87T451 142Q451 186 422 213T349 261T254 299T159 343T86 409T57 512Q57 569 78 609T133 676T208 715T291 727Q313 727 334 725T380 718T431 705T493 683L501 512H467Q460 549 443 581T402 638T345 677T274 691Q225 691 193 661T161 582Q161 543 189 519T261 477T354 440T447 392T518 319T547 206Q547 158 527 118T472 49T390 4T288 -12Q228 -12 170 -1T55 35L46 241ZM250 938H342L464 762H408L296 860L184 762H128L250 938Z"  />
<glyph unicode="&#x15D;" horiz-adv-x="463" d="M43 185H73Q74 151 85 121T116 68T163 32T223 18Q242 18 260 22T292 34T315 56T324 90Q324 119 304 135T253 164T187 189T121 220T71 269T50 348Q50 387 64 415T102 463T158 492T226 502Q282 502 317 492T381 470V341H351Q348 367 337 391T309 433T269 461T219 472Q189 472 168 457T146 410Q146 385 166 370T217 344T283 320T349 289T399 239T420 159Q420 117 403 86T358 32T293 -1T219 -12Q162 -12 117 0T43 23V185ZM184 731H276L398 555H342L230 653L118 555H62L184 731Z"  />
<glyph unicode="&#x15E;" horiz-adv-x="593" d="M179 -165Q195 -171 210 -174T243 -178Q296 -178 296 -138Q296 -120 282 -111T252 -102Q245 -102 238 -103T222 -106L211 -98L249 -10Q199 -7 151 4T55 35L46 241H81Q83 203 99 164T142 94T209 44T297 24Q327 24 354 30T403 51T438 87T451 142Q451 186 422 213T349 261T254 299T159 343T86 409T57 512Q57 569 78 609T133 676T208 715T291 727Q313 727 334 725T380 718T431 705T493 683L501 512H467Q460 549 443 581T402 638T345 677T274 691Q225 691 193 661T161 582Q161 543 189 519T261 477T354 440T447 392T518 319T547 206Q547 158 527 118T473 50T392 5T291 -12L268 -65Q276 -63 285 -62T306 -60Q322 -60 337 -63T365 -75T384 -96T392 -130Q392 -158 379 -175T344 -203T298 -216T250 -220Q232 -220 208 -215T163 -202L179 -165Z"  />
<glyph unicode="&#x15F;" horiz-adv-x="463" d="M110 -165Q126 -171 141 -174T174 -178Q227 -178 227 -138Q227 -120 213 -111T183 -102Q176 -102 169 -103T153 -106L142 -98L180 -10Q136 -5 101 5T43 23V185H73Q74 151 85 121T116 68T163 32T223 18Q242 18 260 22T292 34T315 56T324 90Q324 119 304 135T253 164T187 189T121 220T71 269T50 348Q50 387 64 415T102 463T158 492T226 502Q282 502 317 492T381 470V341H351Q348 367 337 391T309 433T269 461T219 472Q189 472 168 457T146 410Q146 385 166 370T217 344T283 320T349 289T399 239T420 159Q420 118 403 86T359 33T295 0T222 -12L199 -65Q207 -63 216 -62T237 -60Q253 -60 268 -63T296 -75T315 -96T323 -130Q323 -158 310 -175T275 -203T229 -216T181 -220Q163 -220 139 -215T94 -202L110 -165Z"  />
<glyph unicode="&#x160;" horiz-adv-x="593" d="M46 241H81Q83 203 99 164T142 94T209 44T297 24Q327 24 354 30T403 51T438 87T451 142Q451 186 422 213T349 261T254 299T159 343T86 409T57 512Q57 569 78 609T133 676T208 715T291 727Q313 727 334 725T380 718T431 705T493 683L501 512H467Q460 549 443 581T402 638T345 677T274 691Q225 691 193 661T161 582Q161 543 189 519T261 477T354 440T447 392T518 319T547 206Q547 158 527 118T472 49T390 4T288 -12Q228 -12 170 -1T55 35L46 241ZM128 952H184L296 854L408 952H464L342 776H250L128 952Z"  />
<glyph unicode="&#x161;" horiz-adv-x="463" d="M43 185H73Q74 151 85 121T116 68T163 32T223 18Q242 18 260 22T292 34T315 56T324 90Q324 119 304 135T253 164T187 189T121 220T71 269T50 348Q50 387 64 415T102 463T158 492T226 502Q282 502 317 492T381 470V341H351Q348 367 337 391T309 433T269 461T219 472Q189 472 168 457T146 410Q146 385 166 370T217 344T283 320T349 289T399 239T420 159Q420 117 403 86T358 32T293 -1T219 -12Q162 -12 117 0T43 23V185ZM63 731H119L231 633L343 731H399L277 555H185L63 731Z"  />
<glyph unicode="&#x162;" horiz-adv-x="758" d="M205 30H301V685H264Q209 685 171 666T108 617T72 549T60 473H30V715H728V473H698Q697 511 686 549T651 617T588 666T494 685H457V30H553V0H205V30ZM290 -285L329 -102Q335 -74 349 -62T381 -50Q399 -50 410 -61T422 -91Q422 -110 406 -139L325 -285H290Z"  />
<glyph unicode="&#x163;" horiz-adv-x="389" d="M95 628H239V490H340V460H239V110Q239 98 240 84T245 58T260 38T290 30Q315 30 331 40T359 62L377 43Q345 9 307 -1T223 -12Q200 -12 177 -9T136 8T107 47T95 119V460H23V490H95V628ZM99 -285L138 -102Q144 -74 158 -62T190 -50Q208 -50 219 -61T231 -91Q231 -110 215 -139L134 -285H99Z"  />
<glyph unicode="&#x164;" horiz-adv-x="758" d="M205 30H301V685H264Q209 685 171 666T108 617T72 549T60 473H30V715H728V473H698Q697 511 686 549T651 617T588 666T494 685H457V30H553V0H205V30ZM211 952H267L379 854L491 952H547L425 776H333L211 952Z"  />
<glyph unicode="&#x165;" horiz-adv-x="389" d="M95 628H239V490H340V460H239V110Q239 98 240 84T245 58T260 38T290 30Q315 30 331 40T359 62L377 43Q345 9 307 -1T223 -12Q200 -12 177 -9T136 8T107 47T95 119V460H23V490H95V628ZM270 546L309 729Q315 757 329 769T361 781Q379 781 390 770T402 740Q402 721 386 692L305 546H270Z"  />
<glyph unicode="&#x166;" horiz-adv-x="758" d="M185 419H301V685H264Q209 685 171 666T108 617T72 549T60 473H30V715H728V473H698Q697 511 686 549T651 617T588 666T494 685H457V419H579V377H457V30H553V0H205V30H301V377H185V419Z"  />
<glyph unicode="&#x167;" horiz-adv-x="389" d="M23 343H95V460H23V490H95V628H239V490H340V460H239V343H325V314H239V110Q239 98 240 84T245 58T260 38T290 30Q315 30 331 40T359 62L377 43Q345 9 307 -1T223 -12Q200 -12 177 -9T136 8T107 47T95 119V314H23V343Z"  />
<glyph unicode="&#x168;" horiz-adv-x="796" d="M18 715H379V685H270V178Q270 135 284 106T322 58T379 32T449 24Q488 24 524 32T588 61T633 114T650 198V685H545V715H784V685H686V204Q686 140 665 99T607 33T520 -2T413 -12Q342 -12 286 -5T192 24T134 84T114 184V685H18V715ZM243 788Q249 811 257 833T278 873T311 902T358 913Q379 913 401 906T445 889T486 873T520 865Q540 865 551 880T566 912H609Q603 889 595 867T573 827T540 798T493 787Q472 787 450 794T406 811T365 827T331 835Q311 835 300 820T286 788H243Z"  />
<glyph unicode="&#x169;" horiz-adv-x="667" d="M572 30H644V0Q607 0 577 0T522 -2T473 -4T428 -6V70H426Q400 28 357 8T267 -12Q229 -12 198 -5T143 22T108 73T95 153V460H23V490H85Q162 490 239 496V123Q239 94 245 77T262 51T287 39T317 36Q365 36 396 75T428 196V460H356V490H418Q495 490 572 496V30ZM153 581Q159 604 167 626T188 666T221 695T268 706Q289 706 311 699T355 682T396 666T430 658Q450 658 461 673T476 705H519Q513 682 505 660T483 620T450 591T403 580Q382 580 360 587T316 604T275 620T241 628Q221 628 210 613T196 581H153Z"  />
<glyph unicode="&#x16A;" horiz-adv-x="796" d="M18 715H379V685H270V178Q270 135 284 106T322 58T379 32T449 24Q488 24 524 32T588 61T633 114T650 198V685H545V715H784V685H686V204Q686 140 665 99T607 33T520 -2T413 -12Q342 -12 286 -5T192 24T134 84T114 184V685H18V715ZM278 872H572V800H278V872Z"  />
<glyph unicode="&#x16B;" horiz-adv-x="667" d="M572 30H644V0Q607 0 577 0T522 -2T473 -4T428 -6V70H426Q400 28 357 8T267 -12Q229 -12 198 -5T143 22T108 73T95 153V460H23V490H85Q162 490 239 496V123Q239 94 245 77T262 51T287 39T317 36Q365 36 396 75T428 196V460H356V490H418Q495 490 572 496V30ZM187 665H481V593H187V665Z"  />
<glyph unicode="&#x16C;" horiz-adv-x="796" d="M18 715H379V685H270V178Q270 135 284 106T322 58T379 32T449 24Q488 24 524 32T588 61T633 114T650 198V685H545V715H784V685H686V204Q686 140 665 99T607 33T520 -2T413 -12Q342 -12 286 -5T192 24T134 84T114 184V685H18V715ZM576 928Q574 892 565 862T537 811T490 777T425 764Q387 764 360 776T314 810T286 862T274 928H317Q334 842 425 842Q516 842 533 928H576Z"  />
<glyph unicode="&#x16D;" horiz-adv-x="667" d="M572 30H644V0Q607 0 577 0T522 -2T473 -4T428 -6V70H426Q400 28 357 8T267 -12Q229 -12 198 -5T143 22T108 73T95 153V460H23V490H85Q162 490 239 496V123Q239 94 245 77T262 51T287 39T317 36Q365 36 396 75T428 196V460H356V490H418Q495 490 572 496V30ZM486 721Q484 685 475 655T447 604T400 570T335 557Q297 557 270 569T224 603T196 655T184 721H227Q244 635 335 635Q426 635 443 721H486Z"  />
<glyph unicode="&#x16E;" horiz-adv-x="796" d="M18 715H379V685H270V178Q270 135 284 106T322 58T379 32T449 24Q488 24 524 32T588 61T633 114T650 198V685H545V715H784V685H686V204Q686 140 665 99T607 33T520 -2T413 -12Q342 -12 286 -5T192 24T134 84T114 184V685H18V715ZM319 841Q319 886 349 916T425 947Q470 947 500 917T531 841Q531 796 501 766T425 735Q380 735 350 765T319 841ZM483 841Q483 865 466 882T425 899Q401 899 384 882T367 841Q367 817 384 800T425 783Q449 783 466 800T483 841Z"  />
<glyph unicode="&#x16F;" horiz-adv-x="667" d="M572 30H644V0Q607 0 577 0T522 -2T473 -4T428 -6V70H426Q400 28 357 8T267 -12Q229 -12 198 -5T143 22T108 73T95 153V460H23V490H85Q162 490 239 496V123Q239 94 245 77T262 51T287 39T317 36Q365 36 396 75T428 196V460H356V490H418Q495 490 572 496V30ZM228 644Q228 689 258 719T334 750Q379 750 409 720T440 644Q440 599 410 569T334 538Q289 538 259 568T228 644ZM392 644Q392 668 375 685T334 702Q310 702 293 685T276 644Q276 620 293 603T334 586Q358 586 375 603T392 644Z"  />
<glyph unicode="&#x170;" horiz-adv-x="796" d="M18 715H379V685H270V178Q270 135 284 106T322 58T379 32T449 24Q488 24 524 32T588 61T633 114T650 198V685H545V715H784V685H686V204Q686 140 665 99T607 33T520 -2T413 -12Q342 -12 286 -5T192 24T134 84T114 184V685H18V715ZM273 762L390 894Q413 919 428 931T463 944Q487 944 499 931T511 900Q511 889 506 877T482 854L329 762H273ZM481 762L598 894Q621 919 636 931T671 944Q695 944 707 931T719 900Q719 889 714 877T690 854L537 762H481Z"  />
<glyph unicode="&#x171;" horiz-adv-x="667" d="M572 30H644V0Q607 0 577 0T522 -2T473 -4T428 -6V70H426Q400 28 357 8T267 -12Q229 -12 198 -5T143 22T108 73T95 153V460H23V490H85Q162 490 239 496V123Q239 94 245 77T262 51T287 39T317 36Q365 36 396 75T428 196V460H356V490H418Q495 490 572 496V30ZM191 555L298 689Q319 715 334 726T368 737Q391 737 403 724T415 693Q415 681 409 669T386 646L247 555H191ZM368 555L485 687Q508 712 523 724T558 737Q582 737 594 724T606 693Q606 682 601 670T577 647L424 555H368Z"  />
<glyph unicode="&#x172;" horiz-adv-x="796" d="M533 -150Q509 -187 482 -203T410 -220Q402 -220 387 -218T356 -207T330 -181T318 -135Q318 -97 345 -66T414 -12H413Q342 -12 286 -5T192 24T134 84T114 184V685H18V715H379V685H270V178Q270 135 284 106T322 58T379 32T449 24Q488 24 524 32T588 61T633 114T650 198V685H545V715H784V685H686V204Q686 150 671 113T628 50T564 11T482 -8Q459 -29 445 -46T422 -77T411 -105T408 -131Q408 -153 418 -165T448 -178Q468 -178 481 -167T503 -142L533 -150Z"  />
<glyph unicode="&#x173;" horiz-adv-x="667" d="M548 -150Q524 -187 497 -203T425 -220Q417 -220 402 -218T371 -207T345 -181T333 -135Q333 -94 361 -63T428 -6V70H426Q400 28 357 8T267 -12Q229 -12 198 -5T143 22T108 73T95 153V460H23V490H85Q162 490 239 496V123Q239 94 245 77T262 51T287 39T317 36Q365 36 396 75T428 196V460H356V490H418Q495 490 572 496V30H644V0Q595 0 559 0T491 -2Q450 -46 437 -75T423 -131Q423 -153 433 -165T463 -178Q483 -178 496 -167T518 -142L548 -150Z"  />
<glyph unicode="&#x174;" horiz-adv-x="1130" d="M81 685H9V715H346V685H250L398 227H400L547 685H451V715H820V685H724L872 227H874L1021 685H925V715H1121V685H1052L826 -12H790L567 661H565L355 -12H318L81 685ZM552 938H644L766 762H710L598 860L486 762H430L552 938Z"  />
<glyph unicode="&#x175;" horiz-adv-x="889" d="M73 460H1V490H300V460H222L319 179H321L427 460H349V490H657V460H579L674 179H676L778 460H706V490H888V460H816L636 -12H604L444 418L279 -12H249L73 460ZM417 731H509L631 555H575L463 653L351 555H295L417 731Z"  />
<glyph unicode="&#x176;" horiz-adv-x="722" d="M176 30H283V358L81 685H3V715H380V685H266L435 406L599 685H495V715H719V685H641L439 358V30H546V0H176V30ZM344 938H436L558 762H502L390 860L278 762H222L344 938Z"  />
<glyph unicode="&#x177;" horiz-adv-x="574" d="M466 460H394V490H570V460H504L311 -37Q299 -68 285 -100T250 -159T200 -203T129 -220Q107 -220 88 -213T53 -193T30 -161T21 -118Q21 -103 24 -89T36 -63T56 -44T86 -37Q121 -37 134 -56T147 -100Q147 -119 144 -127T140 -148Q140 -161 147 -169T168 -178Q184 -178 200 -165T230 -129T258 -79T280 -22L76 460H4V490H307V460H235L355 162L466 460ZM270 731H362L484 555H428L316 653L204 555H148L270 731Z"  />
<glyph unicode="&#x178;" horiz-adv-x="722" d="M176 30H283V358L81 685H3V715H380V685H266L435 406L599 685H495V715H719V685H641L439 358V30H546V0H176V30ZM219 835Q219 862 238 881T285 901Q312 901 331 882T351 835Q351 808 332 789T285 769Q258 769 239 788T219 835ZM429 835Q429 862 448 881T495 901Q522 901 541 882T561 835Q561 808 542 789T495 769Q468 769 449 788T429 835Z"  />
<glyph unicode="&#x179;" horiz-adv-x="667" d="M69 484V715H661L207 30H343Q388 30 432 40T514 75T576 141T609 244H639V0H6L460 685H362Q321 685 277 676T195 644T131 582T99 484H69ZM297 762L414 894Q437 919 452 931T487 944Q511 944 523 931T535 900Q535 889 530 877T506 854L353 762H297Z"  />
<glyph unicode="&#x17A;" horiz-adv-x="500" d="M63 490H474L202 30H259Q306 30 339 42T393 76T425 127T437 190H467V0H26L299 460H229Q166 460 130 422T93 321H63V490ZM207 555L324 687Q347 712 362 724T397 737Q421 737 433 724T445 693Q445 682 440 670T416 647L263 555H207Z"  />
<glyph unicode="&#x17B;" horiz-adv-x="667" d="M69 484V715H661L207 30H343Q388 30 432 40T514 75T576 141T609 244H639V0H6L460 685H362Q321 685 277 676T195 644T131 582T99 484H69ZM290 836Q290 863 309 882T356 902Q383 902 402 883T422 836Q422 809 403 790T356 770Q329 770 310 789T290 836Z"  />
<glyph unicode="&#x17C;" horiz-adv-x="500" d="M63 490H474L202 30H259Q306 30 339 42T393 76T425 127T437 190H467V0H26L299 460H229Q166 460 130 422T93 321H63V490ZM201 629Q201 656 220 675T267 695Q294 695 313 676T333 629Q333 602 314 583T267 563Q240 563 221 582T201 629Z"  />
<glyph unicode="&#x17D;" horiz-adv-x="667" d="M69 484V715H661L207 30H343Q388 30 432 40T514 75T576 141T609 244H639V0H6L460 685H362Q321 685 277 676T195 644T131 582T99 484H69ZM188 952H244L356 854L468 952H524L402 776H310L188 952Z"  />
<glyph unicode="&#x17E;" horiz-adv-x="500" d="M63 490H474L202 30H259Q306 30 339 42T393 76T425 127T437 190H467V0H26L299 460H229Q166 460 130 422T93 321H63V490ZM99 731H155L267 633L379 731H435L313 555H221L99 731Z"  />
<glyph unicode="&#x192;" horiz-adv-x="556" d="M108 391H207Q210 442 226 498T272 600T346 676T449 706Q471 706 491 700T526 683T549 654T558 613Q558 575 541 560T494 544Q464 544 451 558T438 593Q438 617 446 629T455 656Q455 667 448 671T433 676Q413 676 401 663T380 630T368 591T363 558L347 391H458L451 355H342L314 98Q307 37 288 -17T237 -111T166 -174T76 -198Q20 -198 -8 -173T-37 -107Q-37 -81 -21 -63T24 -44Q51 -44 67 -58T83 -99Q83 -114 80 -124T76 -147Q76 -156 82 -162T99 -168Q131 -168 145 -126T166 -12L202 355H101L108 391Z"  />
<glyph unicode="&#x218;" horiz-adv-x="593" d="M46 241H81Q83 203 99 164T142 94T209 44T297 24Q327 24 354 30T403 51T438 87T451 142Q451 186 422 213T349 261T254 299T159 343T86 409T57 512Q57 569 78 609T133 676T208 715T291 727Q313 727 334 725T380 718T431 705T493 683L501 512H467Q460 549 443 581T402 638T345 677T274 691Q225 691 193 661T161 582Q161 543 189 519T261 477T354 440T447 392T518 319T547 206Q547 158 527 118T472 49T390 4T288 -12Q228 -12 170 -1T55 35L46 241ZM204 -285L243 -102Q249 -74 263 -62T295 -50Q313 -50 324 -61T336 -91Q336 -110 320 -139L239 -285H204Z"  />
<glyph unicode="&#x219;" horiz-adv-x="463" d="M43 185H73Q74 151 85 121T116 68T163 32T223 18Q242 18 260 22T292 34T315 56T324 90Q324 119 304 135T253 164T187 189T121 220T71 269T50 348Q50 387 64 415T102 463T158 492T226 502Q282 502 317 492T381 470V341H351Q348 367 337 391T309 433T269 461T219 472Q189 472 168 457T146 410Q146 385 166 370T217 344T283 320T349 289T399 239T420 159Q420 117 403 86T358 32T293 -1T219 -12Q162 -12 117 0T43 23V185ZM135 -285L174 -102Q180 -74 194 -62T226 -50Q244 -50 255 -61T267 -91Q267 -110 251 -139L170 -285H135Z"  />
<glyph unicode="&#x21A;" horiz-adv-x="758" d="M205 30H301V685H264Q209 685 171 666T108 617T72 549T60 473H30V715H728V473H698Q697 511 686 549T651 617T588 666T494 685H457V30H553V0H205V30ZM290 -285L329 -102Q335 -74 349 -62T381 -50Q399 -50 410 -61T422 -91Q422 -110 406 -139L325 -285H290Z"  />
<glyph unicode="&#x21B;" horiz-adv-x="389" d="M95 628H239V490H340V460H239V110Q239 98 240 84T245 58T260 38T290 30Q315 30 331 40T359 62L377 43Q345 9 307 -1T223 -12Q200 -12 177 -9T136 8T107 47T95 119V460H23V490H95V628ZM99 -285L138 -102Q144 -74 158 -62T190 -50Q208 -50 219 -61T231 -91Q231 -110 215 -139L134 -285H99Z"  />
<glyph unicode="&#x237;" horiz-adv-x="334" d="M0 -190Q53 -190 74 -160T95 -83V460H23V490H85Q162 490 239 496V23Q239 -24 233 -66T203 -141T131 -195T0 -220V-190Z"  />
<glyph unicode="&#x2C6;" horiz-adv-x="278" d="M93 731H185L307 555H251L139 653L27 555H-29L93 731Z"  />
<glyph unicode="&#x2C7;" horiz-adv-x="278" d="M-29 731H27L139 633L251 731H307L185 555H93L-29 731Z"  />
<glyph unicode="&#x2C9;" horiz-adv-x="278" d="M-8 665H286V593H-8V665Z"  />
<glyph unicode="&#x2D8;" horiz-adv-x="278" d="M290 721Q288 685 279 655T251 604T204 570T139 557Q101 557 74 569T28 603T0 655T-12 721H31Q48 635 139 635Q230 635 247 721H290Z"  />
<glyph unicode="&#x2D9;" horiz-adv-x="278" d="M73 629Q73 656 92 675T139 695Q166 695 185 676T205 629Q205 602 186 583T139 563Q112 563 93 582T73 629Z"  />
<glyph unicode="&#x2DA;" horiz-adv-x="278" d="M33 644Q33 689 63 719T139 750Q184 750 214 720T245 644Q245 599 215 569T139 538Q94 538 64 568T33 644ZM197 644Q197 668 180 685T139 702Q115 702 98 685T81 644Q81 620 98 603T139 586Q163 586 180 603T197 644Z"  />
<glyph unicode="&#x2DB;" horiz-adv-x="278" d="M232 -150Q208 -187 181 -203T109 -220Q101 -220 86 -218T55 -207T29 -181T17 -135Q17 -92 51 -58T138 0H191Q165 -23 149 -41T123 -75T111 -104T107 -131Q107 -153 117 -165T147 -178Q167 -178 180 -167T202 -142L232 -150Z"  />
<glyph unicode="&#x2DC;" horiz-adv-x="278" d="M-44 581Q-38 604 -30 626T-9 666T24 695T71 706Q92 706 114 699T158 682T199 666T233 658Q253 658 264 673T279 705H322Q316 682 308 660T286 620T253 591T206 580Q185 580 163 587T119 604T78 620T44 628Q24 628 13 613T-1 581H-44Z"  />
<glyph unicode="&#x2DD;" horiz-adv-x="278" d="M-21 555L86 689Q107 715 122 726T156 737Q179 737 191 724T203 693Q203 681 197 669T174 646L35 555H-21ZM156 555L273 687Q296 712 311 724T346 737Q370 737 382 724T394 693Q394 682 389 670T365 647L212 555H156Z"  />
<glyph unicode="&#x394;" horiz-adv-x="685" d="M7 0L337 712H391L678 0H7ZM329 579L90 64H538L329 579Z"  />
<glyph unicode="&#x3A9;" horiz-adv-x="741" d="M710 438Q710 383 691 337T638 256T558 198T460 168V90H562Q599 90 617 95T643 112T656 144T668 194H698L687 0H411V188Q512 211 554 272T597 436Q597 489 583 534T540 613T469 666T370 685Q313 685 271 666T200 612T158 531T144 431Q144 330 185 270T327 188V0H51L41 194H71Q72 183 74 168T81 139T93 113T113 96Q122 91 140 91T169 90H278V168Q227 175 182 196T103 251T50 330T30 429Q30 499 59 553T137 645T248 701T374 720Q437 720 497 702T605 648T681 560T710 438Z"  />
<glyph unicode="&#x3BC;" horiz-adv-x="667" d="M572 30H644V0Q607 0 577 0T522 -2T473 -4T428 -6V70H426Q400 28 357 8T267 -12Q247 -12 227 -9T193 6Q194 -1 196 -17T202 -54T207 -93T209 -126Q209 -174 193 -197T139 -220Q101 -220 86 -197T71 -126Q71 -114 74 -80T82 1T91 99T95 200V460H23V490H85Q162 490 239 496V123Q239 94 245 77T262 51T287 39T317 36Q365 36 396 75T428 196V460H356V490H418Q495 490 572 496V30Z"  />
<glyph unicode="&#x3C0;" horiz-adv-x="630" d="M598 526Q596 491 589 468T566 430T528 410T470 403V123Q470 113 470 98T472 70T482 47T504 37Q520 37 528 49T540 77T544 111T544 139H579Q579 136 579 134T580 128Q580 99 576 74T559 30T525 1T471 -10Q435 -10 414 2T383 34T370 82T367 138V403H224Q224 334 224 263T216 123Q213 101 208 78T193 36T165 4T120 -9Q93 -9 78 3T55 34T45 75T43 118H72Q72 107 73 96T79 75T91 59T113 52Q129 52 139 62T155 86T164 115T169 143Q178 201 180 260T182 379V403H148Q118 403 102 392T79 350H50Q52 378 57 402T75 445T107 473T161 484H494Q509 484 521 484T542 487T558 500T568 526H598H598Z"  />
<glyph unicode="&#x2013;" horiz-adv-x="500" d="M0 281H500V191H0V281Z"  />
<glyph unicode="&#x2014;" horiz-adv-x="1000" d="M130 281H870V191H130V281Z"  />
<glyph unicode="&#x2018;" horiz-adv-x="222" d="M177 699Q154 689 135 673T102 637T80 592T74 542Q99 552 125 552Q155 552 178 532T202 477Q202 441 178 419T118 396Q91 396 72 406T42 434T25 473T20 518Q20 591 60 644T164 727L177 699Z"  />
<glyph unicode="&#x2019;" horiz-adv-x="222" d="M45 424Q67 434 86 450T120 486T142 531T148 581Q123 571 97 571Q67 571 44 591T20 646Q20 682 44 704T104 727Q131 727 150 717T180 689T197 650T202 605Q202 532 162 479T58 396L45 424Z"  />
<glyph unicode="&#x201A;" horiz-adv-x="222" d="M45 -153Q67 -143 86 -127T120 -91T142 -46T148 4Q123 -6 97 -6Q67 -6 44 14T20 69Q20 105 44 127T104 150Q131 150 150 140T180 112T197 73T202 28Q202 -45 162 -98T58 -181L45 -153Z"  />
<glyph unicode="&#x201C;" horiz-adv-x="481" d="M423 699Q400 689 381 673T348 637T326 592T320 542Q345 552 371 552Q401 552 424 532T448 477Q448 441 424 419T364 396Q337 396 318 406T288 434T271 473T266 518Q266 591 306 644T410 727L423 699ZM190 699Q167 689 148 673T115 637T93 592T87 542Q112 552 138 552Q168 552 191 532T215 477Q215 441 191 419T131 396Q104 396 85 406T55 434T38 473T33 518Q33 591 73 644T177 727L190 699Z"  />
<glyph unicode="&#x201D;" horiz-adv-x="481" d="M58 424Q80 434 99 450T133 486T155 531T161 581Q136 571 110 571Q80 571 57 591T33 646Q33 682 57 704T117 727Q144 727 163 717T193 689T210 650T215 605Q215 532 175 479T71 396L58 424ZM291 424Q313 434 332 450T366 486T388 531T394 581Q369 571 343 571Q313 571 290 591T266 646Q266 682 290 704T350 727Q377 727 396 717T426 689T443 650T448 605Q448 532 408 479T304 396L291 424Z"  />
<glyph unicode="&#x201E;" horiz-adv-x="481" d="M58 -153Q80 -143 99 -127T133 -91T155 -46T161 4Q136 -6 110 -6Q80 -6 57 14T33 69Q33 105 57 127T117 150Q144 150 163 140T193 112T210 73T215 28Q215 -45 175 -98T71 -181L58 -153ZM291 -153Q313 -143 332 -127T366 -91T388 -46T394 4Q369 -6 343 -6Q313 -6 290 14T266 69Q266 105 290 127T350 150Q377 150 396 140T426 112T443 73T448 28Q448 -45 408 -98T304 -181L291 -153Z"  />
<glyph unicode="&#x2020;" horiz-adv-x="556" d="M194 -60Q194 -23 203 34T224 156T244 288T254 412Q237 412 217 405T177 388Q157 379 138 372T104 364Q73 364 60 386T47 433Q47 459 62 480T105 502Q122 502 139 495T176 478Q195 469 214 462T254 454Q254 478 246 503T227 554T209 603T200 649Q200 684 222 705T278 727Q311 727 333 706T356 649Q356 627 348 603T329 554T311 504T302 454Q322 454 341 461T380 478Q399 487 416 494T451 502Q479 502 494 481T509 433Q509 408 496 386T452 364Q437 364 418 371T379 388Q359 397 339 404T302 412Q302 355 311 288T332 156T352 34T362 -60Q362 -98 340 -122T278 -147Q239 -147 217 -123T194 -60Z"  />
<glyph unicode="&#x2021;" horiz-adv-x="556" d="M278 727Q311 727 332 707T353 652Q353 630 345 608T328 562T310 515T302 465Q322 465 341 472T378 489T415 505T450 513Q478 513 493 492T509 444Q509 419 496 397T451 375Q433 375 415 382T379 399T341 415T302 423Q302 402 305 386T311 354T317 324T320 290Q320 271 317 256T311 227T305 198T302 165Q322 165 341 172T378 189T415 205T450 213Q478 213 493 192T509 144Q509 119 496 97T451 75Q433 75 415 82T379 99T341 115T302 123Q302 94 310 69T329 19T347 -27T356 -72Q356 -106 335 -126T278 -147Q243 -147 222 -127T200 -72Q200 -50 208 -28T227 19T245 68T254 123Q234 123 215 116T178 99T141 83T105 75Q74 75 61 97T47 144Q47 170 62 191T106 213Q123 213 141 206T177 189T215 173T254 165Q254 183 251 198T245 227T239 256T236 290Q236 309 239 324T245 354T251 385T254 423Q234 423 215 416T178 399T141 383T105 375Q74 375 61 397T47 444Q47 470 62 491T106 513Q123 513 141 506T177 489T215 473T254 465Q254 491 246 515T229 562T211 607T203 652Q203 686 224 706T278 727Z"  />
<glyph unicode="&#x2022;" horiz-adv-x="500" d="M71 358Q71 395 85 427T123 484T180 523T250 537Q287 537 320 523T377 485T415 428T429 358Q429 321 415 289T377 232T320 193T250 179Q213 179 181 193T124 231T85 288T71 358Z"  />
<glyph unicode="&#x2026;" horiz-adv-x="1000" d="M86 69Q86 103 109 126T167 150Q201 150 224 127T248 69Q248 35 225 12T167 -12Q133 -12 110 11T86 69ZM752 69Q752 103 775 126T833 150Q867 150 890 127T914 69Q914 35 891 12T833 -12Q799 -12 776 11T752 69ZM419 69Q419 103 442 126T500 150Q534 150 557 127T581 69Q581 35 558 12T500 -12Q466 -12 443 11T419 69Z"  />
<glyph unicode="&#x2030;" horiz-adv-x="1000" d="M10 540Q10 575 20 605T50 658T98 693T164 706Q201 706 229 694T277 659T307 606T318 540Q318 505 308 475T278 422T230 387T164 374Q127 374 99 386T51 421T21 474T10 540ZM334 154Q334 189 344 219T374 272T422 307T488 320Q525 320 553 308T601 273T631 220T642 154Q642 119 632 89T602 36T554 1T488 -12Q451 -12 423 0T375 35T345 88T334 154ZM682 154Q682 189 692 219T722 272T770 307T836 320Q873 320 901 308T949 273T979 220T990 154Q990 119 980 89T950 36T902 1T836 -12Q799 -12 771 0T723 35T693 88T682 154ZM520 722H576L133 -28H77L520 722ZM106 540Q106 521 107 498T113 453T131 418T164 404Q185 404 197 418T214 453T221 497T222 540Q222 559 221 582T215 627T197 662T164 676Q143 676 131 662T114 627T107 583T106 540ZM430 154Q430 135 431 112T437 67T455 32T488 18Q509 18 521 32T538 67T545 111T546 154Q546 173 545 196T539 241T521 276T488 290Q467 290 455 276T438 241T431 197T430 154ZM778 154Q778 135 779 112T785 67T803 32T836 18Q857 18 869 32T886 67T893 111T894 154Q894 173 893 196T887 241T869 276T836 290Q815 290 803 276T786 241T779 197T778 154Z"  />
<glyph unicode="&#x2039;" horiz-adv-x="259" d="M26 254L210 408L233 389L146 236L233 83L210 64L26 218V254Z"  />
<glyph unicode="&#x203A;" horiz-adv-x="259" d="M233 218L49 64L26 83L113 236L26 389L49 408L233 254V218Z"  />
<glyph unicode="&#x2044;" horiz-adv-x="167" d="M277 722H333L-110 -28H-166L277 722Z"  />
<glyph unicode="&#x20AC;" horiz-adv-x="556" d="M482 518Q480 541 473 568T452 619T416 659T359 675H358Q322 675 299 658T262 608T242 530T233 424H451L442 382H232V311H426L417 269H233Q235 232 241 191T261 116T301 59T368 36Q399 36 422 50T462 87T492 140T512 203L550 196Q541 154 526 116T486 50T425 5T340 -12Q283 -12 238 8T160 64T107 153T77 269H20L29 311H75Q75 317 75 326T74 346T74 366T74 382H20L29 424H75Q81 478 99 529T151 619T236 682T361 706Q401 706 441 695T526 661V518H482Z"  />
<glyph unicode="&#x2113;" horiz-adv-x="402" d="M371 60Q338 26 302 6T213 -14Q156 -14 123 19T89 127V193L43 146L16 181L89 258V481Q89 538 103 581T142 654T196 699T259 715Q308 715 337 683T367 596Q367 524 325 447T201 283V120Q201 75 214 56T254 37Q272 37 292 46T347 88L371 60ZM285 591Q285 629 273 654T243 679Q229 679 215 656T201 581V355Q239 410 262 471T285 591Z"  />
<glyph unicode="&#x2122;" horiz-adv-x="1000" d="M531 595H529V409Q529 389 530 376T536 354T551 342T580 337V313H446V337Q465 338 475 342T491 354T498 375T499 409V638Q473 691 426 691V715H577L711 440L856 715H985V691Q967 690 956 688T939 680T931 667T929 647V381Q929 368 930 360T937 347T953 340T983 337V313H774V337Q793 338 803 340T818 347T824 360T825 381V596H823L679 313H665L531 595ZM96 337Q116 338 126 340T142 347T148 360T149 381V691H102Q73 691 59 672T39 628H15V715H386V628H362Q357 653 342 672T298 691H253V381Q253 368 254 360T260 347T275 340T305 337V313H96V337Z"  />
<glyph unicode="&#x2126;" horiz-adv-x="741" d="M710 438Q710 383 691 337T638 256T558 198T460 168V90H562Q599 90 617 95T643 112T656 144T668 194H698L687 0H411V188Q512 211 554 272T597 436Q597 489 583 534T540 613T469 666T370 685Q313 685 271 666T200 612T158 531T144 431Q144 330 185 270T327 188V0H51L41 194H71Q72 183 74 168T81 139T93 113T113 96Q122 91 140 91T169 90H278V168Q227 175 182 196T103 251T50 330T30 429Q30 499 59 553T137 645T248 701T374 720Q437 720 497 702T605 648T681 560T710 438Z"  />
<glyph unicode="&#x212E;" horiz-adv-x="776" d="M204 349V110Q280 34 391 34Q472 34 532 71T641 190L686 162Q656 116 626 83T560 29T484 -2T391 -12Q315 -12 253 16T148 93T81 208T57 349Q57 424 80 489T147 603T253 678T391 706Q466 706 527 680T632 606T700 494T725 349H204ZM580 396V583Q497 661 390 661Q334 661 288 641T204 583V396H580Z"  />
<glyph unicode="&#x2202;" horiz-adv-x="537" d="M497 361Q497 298 486 232T446 112T368 22T241 -13Q194 -13 154 5T84 53T37 125T20 212Q20 255 36 295T80 365T147 414T230 432Q278 432 315 414T386 364Q383 406 379 458T360 556T313 633T222 664Q187 664 160 652T108 615L64 675Q105 697 139 708T222 720Q301 720 354 690T438 609T483 494T497 361ZM384 308Q358 340 327 358T253 377Q218 377 194 361T156 320T135 264T128 204Q128 177 134 148T155 95T192 56T247 40Q278 40 299 53T336 89T360 140T375 199T381 257T384 308Z"  />
<glyph unicode="&#x2206;" horiz-adv-x="685" d="M7 0L337 712H391L678 0H7ZM329 579L90 64H538L329 579Z"  />
<glyph unicode="&#x220F;" horiz-adv-x="778" d="M496 -214V-189Q540 -189 562 -175T584 -113V672Q584 688 584 700T579 721T564 734T535 739H243Q208 739 200 727T192 683V-113Q192 -137 197 -151T214 -174T241 -186T280 -189V-214H0V-189Q22 -188 37 -185T63 -173T79 -151T84 -113V681Q84 705 80 720T65 744T39 756T0 761V786H778V761Q754 760 738 757T712 744T697 720T692 679V-113Q692 -136 697 -151T713 -174T740 -185T778 -189V-214H496Z"  />
<glyph unicode="&#x2211;" horiz-adv-x="759" d="M683 -214H46L373 307L58 786H665L677 608H648Q643 644 636 669T613 709T572 731T509 738H218L462 361L167 -112H557Q591 -112 611 -108T642 -93T658 -60T668 -6H696L683 -214Z"  />
<glyph unicode="&#x2212;" horiz-adv-x="556" d="M45 281H510V185H45V281Z"  />
<glyph unicode="&#x2215;" horiz-adv-x="167" d="M277 722H333L-110 -28H-166L277 722Z"  />
<glyph unicode="&#x2219;" horiz-adv-x="278" d="M55 281Q55 316 79 340T139 365Q174 365 198 341T223 281Q223 246 199 222T139 197Q104 197 80 221T55 281Z"  />
<glyph unicode="&#x221A;" horiz-adv-x="537" d="M368 -214H282L140 128L81 106L51 178L195 236L314 -82L490 786H579L368 -214Z"  />
<glyph unicode="&#x221E;" horiz-adv-x="720" d="M190 401Q244 401 286 371T360 302Q395 341 435 369T529 397Q565 397 593 385T640 351T670 300T680 236Q680 202 670 172T641 120T593 86T530 73Q476 73 434 102T359 172Q325 133 285 105T191 77Q155 77 127 89T80 123T50 174T40 238Q40 272 50 302T79 354T127 388T190 401ZM404 239Q435 196 465 175T531 153Q559 153 581 179T604 242Q604 276 582 298T531 321Q496 321 466 301T404 239ZM316 235Q285 278 255 299T189 321Q161 321 139 295T116 232Q116 198 138 176T189 153Q224 153 254 173T316 235Z"  />
<glyph unicode="&#x222B;" horiz-adv-x="593" d="M470 713Q470 692 456 678T420 663Q399 663 389 673T372 696T362 719T348 730Q334 730 332 719T329 697Q329 674 330 653T332 608Q332 474 332 342T333 75Q333 49 333 17T331 -47T321 -110T298 -163T257 -201T192 -215Q176 -215 158 -211T125 -198T99 -175T89 -142Q89 -121 103 -107T138 -93Q159 -93 169 -103T185 -126T195 -149T208 -160Q216 -160 220 -154T225 -138T227 -120T227 -106Q227 -89 226 -72T224 -37V586Q224 609 225 631T231 676Q235 701 247 721T278 755T319 778T366 786Q382 786 400 782T434 769T460 746T470 713Z"  />
<glyph unicode="&#x2248;" horiz-adv-x="556" d="M47 349Q55 365 66 380T93 408T127 427T172 435Q200 435 229 425T287 401T340 378T385 367Q415 367 435 389T473 437L509 357Q501 341 490 326T463 298T429 279T384 271Q356 271 327 281T269 305T216 328T171 339Q141 339 121 317T83 269L47 349ZM47 149Q55 165 66 180T93 208T127 227T172 235Q200 235 229 225T287 201T340 178T385 167Q415 167 435 189T473 237L509 157Q501 141 490 126T463 98T429 79T384 71Q356 71 327 81T269 105T216 128T171 139Q141 139 121 117T83 69L47 149Z"  />
<glyph unicode="&#x2260;" horiz-adv-x="556" d="M45 376H304L398 541L482 493L414 376H510V281H359L304 185H510V89H248L155 -73L73 -25L138 89H45V185H193L248 281H45V376Z"  />
<glyph unicode="&#x2264;" horiz-adv-x="556" d="M45 96H510V0H45V96ZM510 428L183 325L510 222V122L45 285V365L510 529V428Z"  />
<glyph unicode="&#x2265;" horiz-adv-x="556" d="M510 0H45V96H510V0ZM45 529L510 365V285L45 122V222L372 325L45 428V529Z"  />
<glyph unicode="&#x25CA;" horiz-adv-x="593" d="M344 -35H248L72 356L248 747H344L520 356L344 -35ZM296 646L176 356L296 65L417 356L296 646Z"  />
<glyph unicode="&#xE300;" horiz-adv-x="278" d="M129 762L-24 854Q-42 865 -47 877T-53 900Q-53 917 -41 930T-5 944Q15 944 30 932T68 894L185 762H129Z"  />
<glyph unicode="&#xE301;" horiz-adv-x="278" d="M93 762L210 894Q233 919 248 931T283 944Q307 944 319 931T331 900Q331 889 326 877T302 854L149 762H93Z"  />
<glyph unicode="&#xE302;" horiz-adv-x="278" d="M93 938H185L307 762H251L139 860L27 762H-29L93 938Z"  />
<glyph unicode="&#xE303;" horiz-adv-x="278" d="M-29 952H27L139 854L251 952H307L185 776H93L-29 952Z"  />
<glyph unicode="&#xE304;" horiz-adv-x="278" d="M-44 788Q-38 811 -30 833T-9 873T24 902T71 913Q92 913 114 906T158 889T199 873T233 865Q253 865 264 880T279 912H322Q316 889 308 867T286 827T253 798T206 787Q185 787 163 794T119 811T78 827T44 835Q24 835 13 820T-1 788H-44Z"  />
<glyph unicode="&#xE305;" horiz-adv-x="278" d="M-32 835Q-32 862 -13 881T34 901Q61 901 80 882T100 835Q100 808 81 789T34 769Q7 769 -12 788T-32 835ZM178 835Q178 862 197 881T244 901Q271 901 290 882T310 835Q310 808 291 789T244 769Q217 769 198 788T178 835Z"  />
<glyph unicode="&#xE306;" horiz-adv-x="278" d="M-8 872H286V800H-8V872Z"  />
<glyph unicode="&#xE307;" horiz-adv-x="278" d="M290 928Q288 892 279 862T251 811T204 777T139 764Q101 764 74 776T28 810T0 862T-12 928H31Q48 842 139 842Q230 842 247 928H290Z"  />
<glyph unicode="&#xE308;" horiz-adv-x="278" d="M33 841Q33 886 63 916T139 947Q184 947 214 917T245 841Q245 796 215 766T139 735Q94 735 64 765T33 841ZM197 841Q197 865 180 882T139 899Q115 899 98 882T81 841Q81 817 98 800T139 783Q163 783 180 800T197 841Z"  />
<glyph unicode="&#xE309;" horiz-adv-x="278" d="M-11 762L106 894Q129 919 144 931T179 944Q203 944 215 931T227 900Q227 889 222 877T198 854L45 762H-11ZM197 762L314 894Q337 919 352 931T387 944Q411 944 423 931T435 900Q435 889 430 877T406 854L253 762H197Z"  />
<glyph unicode="&#xE30A;" horiz-adv-x="278" d="M73 836Q73 863 92 882T139 902Q166 902 185 883T205 836Q205 809 186 790T139 770Q112 770 93 789T73 836Z"  />
<glyph unicode="&#xE30B;" horiz-adv-x="278" d="M68 486L107 669Q113 697 127 709T159 721Q177 721 188 710T200 680Q200 661 184 632L103 486H68Z"  />
<glyph unicode="&#xE30C;" horiz-adv-x="278" d="M70 -285L109 -102Q115 -74 129 -62T161 -50Q179 -50 190 -61T202 -91Q202 -110 186 -139L105 -285H70Z"  />
<glyph unicode="&#xE30D;" horiz-adv-x="278" d="M207 787L168 604Q162 576 148 564T116 552Q98 552 87 563T75 593Q75 612 91 641L172 787H207Z"  />
<glyph unicode="&#xFB01;" horiz-adv-x="648" d="M15 30H87V460H15V490H87V542Q87 592 105 627T157 685T239 717T348 727Q373 727 408 722T477 705T533 671T557 618Q557 605 554 593T544 570T522 554T486 547Q455 547 438 565T420 614Q420 633 430 649T455 675Q410 697 357 697Q317 697 292 687T254 658T236 612T231 548V490H345Q382 490 412 490T467 492T515 493T561 496V30H633V0H345V30H417V460H231V30H314V0H15V30Z"  />
<glyph unicode="&#xFB02;" horiz-adv-x="648" d="M561 30H633V0H345V30H417V552Q392 560 381 575T370 608Q370 620 371 626T374 638T377 648T379 661Q379 676 361 686T316 697Q269 697 250 668T231 596V490H314V460H231V30H314V0H15V30H87V460H15V490H87V548Q87 633 139 680T295 727Q310 727 325 725T354 721Q368 719 382 717T410 715Q439 715 479 716T561 721V30Z"  />

</font>
</defs>
</svg>
